<?xml version="1.0" encoding="UTF-8" standalone="no"?>
<!-- Created with Inkscape (http://www.inkscape.org/) -->

<svg
   width="50.122665mm"
   height="77.046669mm"
   viewBox="0 0 50.122665 77.046669"
   version="1.1"
   id="svg1"
   xml:space="preserve"
   inkscape:version="1.3.2 (091e20e, 2023-11-25)"
   sodipodi:docname="p1.svg"
   xmlns:inkscape="http://www.inkscape.org/namespaces/inkscape"
   xmlns:sodipodi="http://sodipodi.sourceforge.net/DTD/sodipodi-0.dtd"
   xmlns="http://www.w3.org/2000/svg"
   xmlns:svg="http://www.w3.org/2000/svg"><sodipodi:namedview
     id="namedview1"
     pagecolor="#ffffff"
     bordercolor="#000000"
     borderopacity="0.25"
     inkscape:showpageshadow="2"
     inkscape:pageopacity="0.0"
     inkscape:pagecheckerboard="0"
     inkscape:deskcolor="#d1d1d1"
     inkscape:document-units="mm"
     inkscape:zoom="1.0161803"
     inkscape:cx="26.570088"
     inkscape:cy="202.22789"
     inkscape:window-width="1336"
     inkscape:window-height="740"
     inkscape:window-x="0"
     inkscape:window-y="38"
     inkscape:window-maximized="0"
     inkscape:current-layer="layer1" /><defs
     id="defs1" /><g
     inkscape:label="Layer 1"
     inkscape:groupmode="layer"
     id="layer1"
     transform="translate(-79.392059,-109.97666)"><path
       style="fill:#000000"
       d="m 99.041097,186.93866 c -1.956371,-0.0275 -2.916994,-0.0686 -2.751667,-0.11771 0.1397,-0.0415 0.361615,-0.12963 0.493145,-0.19594 0.13153,-0.0663 0.58873,-0.21668 1.016,-0.33416 1.382935,-0.38026 1.447944,-0.40541 1.542734,-0.59687 0.0688,-0.13905 0.0541,-0.48284 -0.0583,-1.35466 -0.08279,-0.64258 -0.191514,-1.60647 -0.241605,-2.14199 -0.05009,-0.53552 -0.108688,-1.14512 -0.130215,-1.35467 -0.02153,-0.20955 -0.07843,-0.85725 -0.126455,-1.43933 -0.04802,-0.58208 -0.104484,-1.21073 -0.125467,-1.397 -0.03774,-0.33502 -0.186139,-3.58422 -0.25715,-5.63033 -0.0202,-0.58209 -0.07575,-1.64889 -0.123449,-2.37067 -0.204823,-3.09963 -0.280039,-7.47938 -0.306074,-17.82233 l -0.02771,-11.00667 -0.19898,-0.9545 c -0.109439,-0.52498 -0.238721,-0.99425 -0.287294,-1.04282 -0.06131,-0.0613 -0.241279,-0.0567 -0.588525,0.015 -0.278147,0.0575 -0.641037,0.0769 -0.817427,0.0438 -0.356084,-0.0668 -0.850779,-0.46027 -1.040888,-0.82791 -0.127203,-0.24598 -0.14132,-0.8517 -0.02531,-1.08591 0.0346,-0.0699 0.082,-0.18965 0.105326,-0.26621 0.0942,-0.30915 0.629365,-0.59797 1.28227,-0.69203 0.664626,-0.0957 0.682982,-0.11192 0.642425,-0.56576 -0.03178,-0.35562 -0.137548,-0.37439 -0.7185,-0.12748 -0.607019,0.25799 -0.803158,0.25233 -1.427622,-0.0412 -0.598953,-0.28154 -0.846608,-0.8806 -0.690625,-1.67059 0.128771,-0.65216 1.284595,-1.29735 2.019463,-1.12727 0.35029,0.0811 0.636102,-0.003 0.645933,-0.19027 0.01054,-0.20062 0.01314,-0.86701 0.0039,-1.01004 -0.01714,-0.26654 -0.306251,-0.33944 -0.783794,-0.19762 -1.061626,0.31527 -2.632159,1.07285 -3.665134,1.76796 -0.322992,0.21735 -0.617314,0.39518 -0.65405,0.39518 -0.03674,0 -0.04405,-0.11371 -0.01625,-0.25269 0.03752,-0.18759 0.01499,-0.26634 -0.08744,-0.30565 -0.180737,-0.0694 -0.366978,0.0674 -1.273949,0.9353 -0.415954,0.39804 -0.804586,0.72371 -0.863626,0.72371 -0.05904,0 -0.147863,0.0667 -0.197383,0.14817 -0.07292,0.12 -0.08002,0.1039 -0.03736,-0.0847 0.06909,-0.3054 -0.02276,-0.65617 -0.171822,-0.65617 -0.12476,0 -0.28123,0.15849 -1.400082,1.41817 -0.713981,0.80384 -0.933778,0.94003 -0.933778,0.57855 0,-0.23718 -0.144476,-0.31514 -0.369255,-0.19926 -0.08667,0.0447 -0.466979,0.38244 -0.845122,0.75056 -0.378144,0.36813 -0.716804,0.66932 -0.752579,0.66932 -0.03577,0 -0.06504,0.0497 -0.06504,0.11045 0,0.0608 -0.13335,0.25604 -0.296333,0.43398 l -0.296333,0.32352 v -0.35415 c 0,-0.19479 0.03496,-0.5139 0.0777,-0.70915 0.04273,-0.19524 0.121835,-0.58359 0.175785,-0.86299 0.109613,-0.56768 0.605196,-1.91507 0.918663,-2.49766 0.323489,-0.60123 0.712515,-1.18534 0.789449,-1.18534 0.03872,0 0.07041,-0.0397 0.07041,-0.0882 0,-0.14368 0.568314,-0.76002 1.446309,-1.56851 0.360751,-0.33219 1.510028,-1.13725 1.623508,-1.13725 0.03047,0 0.23805,-0.1065 0.461291,-0.23667 0.223241,-0.13017 0.596392,-0.30833 0.829226,-0.39593 0.739692,-0.27827 1.164478,-0.9037 0.693991,-1.02178 -0.241019,-0.0605 -1.726711,0.23611 -2.543109,0.5077 -0.854635,0.28431 -0.950927,0.29359 -0.916379,0.0884 0.01568,-0.0931 0.101402,-0.24799 0.1905,-0.34412 0.230086,-0.24826 0.214606,-0.54464 -0.0285,-0.54574 -0.408649,-0.002 -1.822826,0.54642 -3.403042,1.31931 -0.416464,0.2037 -0.775708,0.35185 -0.798319,0.32924 -0.02261,-0.0226 0.03601,-0.14541 0.130258,-0.2729 0.09425,-0.12748 0.233417,-0.35178 0.309256,-0.49844 0.14419,-0.27884 0.09121,-0.40382 -0.19632,-0.46312 -0.285959,-0.059 -2.512757,0.9057 -3.257915,1.41138 -0.434736,0.29502 -0.946168,0.54708 -1.000263,0.49299 -0.06392,-0.0639 0.210925,-0.83639 0.510662,-1.43528 0.755326,-1.50916 1.361275,-2.26786 2.781302,-3.48244 1.283218,-1.09756 2.325522,-1.62468 4.183547,-2.11575 0.824512,-0.21792 0.996482,-0.23396 2.370667,-0.22112 0.814917,0.008 1.719792,0.0323 2.010833,0.0548 0.409257,0.0317 0.529167,0.0149 0.529167,-0.0739 0,-0.16455 -0.807929,-0.67796 -1.441982,-0.91632 -0.614087,-0.23085 -0.722307,-0.37072 -0.345193,-0.44614 0.287502,-0.0575 0.475798,-0.2316 0.393867,-0.36416 -0.0735,-0.11892 -0.488135,-0.2965 -1.189025,-0.50924 -0.325967,-0.0989 -0.668867,-0.2117 -0.762,-0.25059 -0.09313,-0.0389 -0.414235,-0.14364 -0.71356,-0.23278 -0.299324,-0.0891 -0.558606,-0.2052 -0.576182,-0.25793 -0.01882,-0.0565 0.162955,-0.13948 0.442257,-0.20199 0.260818,-0.0584 0.491648,-0.13433 0.512957,-0.16881 0.12944,-0.20944 -0.293579,-0.50201 -1.020139,-0.70554 -0.232833,-0.0652 -0.632883,-0.18258 -0.889,-0.26079 -0.256117,-0.0782 -0.646641,-0.18207 -0.867833,-0.2308 -0.458197,-0.10096 -0.498941,-0.17909 -0.175585,-0.33672 0.124619,-0.0607 0.241714,-0.15694 0.260211,-0.21376 0.04851,-0.149 -0.461719,-0.43289 -0.894739,-0.49783 -0.20412,-0.0306 -0.33285,-0.0793 -0.286066,-0.10826 0.04678,-0.0289 -0.103063,-0.0607 -0.332995,-0.0706 -0.229931,-0.01 -0.559643,-0.0573 -0.732692,-0.10536 -0.173049,-0.0481 -0.438459,-0.0876 -0.589801,-0.0879 -0.465588,-8e-4 -0.309829,-0.16517 0.52716,-0.55629 1.117636,-0.52228 2.715246,-0.9293 4.002387,-1.01968 0.840163,-0.059 2.118826,0.0629 2.899953,0.27656 0.658892,0.18019 1.598881,0.53728 1.655505,0.62889 0.0263,0.0426 0.107264,0.0774 0.179916,0.0774 0.115756,0 1.099578,0.54536 1.212579,0.67216 0.02328,0.0261 0.15402,0.1102 0.290525,0.18682 0.307706,0.17271 1.486559,1.22228 1.706286,1.51916 0.273502,0.36954 0.770934,0.75929 0.903927,0.70825 0.08389,-0.0322 0.143685,-0.23383 0.182256,-0.61465 0.09441,-0.93213 0.276918,-1.52731 0.925511,-3.01824 0.100372,-0.23073 0.27095,-0.52522 0.379063,-0.65444 0.108112,-0.12921 0.172539,-0.27381 0.14317,-0.32132 -0.02937,-0.0475 -0.01403,-0.0864 0.03409,-0.0864 0.04812,0 0.150509,-0.12383 0.227533,-0.27517 0.261188,-0.5132 1.376361,-1.72408 2.163812,-2.3495 0.14657,-0.11642 0.38447,-0.30946 0.52866,-0.42897 0.35038,-0.29043 1.1497,-0.76633 1.93575,-1.15252 0.3622,-0.17795 1.24306,-0.53503 1.3201,-0.53514 0.0688,-9e-5 -0.091,0.45623 -0.2328,0.66462 -0.59677,0.87714 -1.19455,2.1226 -1.19455,2.48881 0,0.26736 0.18141,0.39775 0.37997,0.27311 0.0937,-0.0588 0.25613,-0.13254 0.36095,-0.16383 0.17834,-0.0532 0.18486,-0.0418 0.10144,0.17759 -0.049,0.12896 -0.2373,0.45634 -0.41838,0.72751 -0.18108,0.27116 -0.35506,0.5778 -0.38662,0.68142 -0.0316,0.10362 -0.10858,0.24694 -0.17114,0.31849 -0.0626,0.0716 -0.19515,0.3141 -0.29463,0.539 -0.16393,0.3706 -0.16849,0.42129 -0.0487,0.54109 0.1198,0.1198 0.15992,0.11725 0.4283,-0.0273 0.16286,-0.0877 0.31774,-0.13785 0.34416,-0.11142 0.0589,0.0588 -0.10787,0.51598 -0.21156,0.58007 -0.0796,0.0492 -0.93046,1.72066 -0.93046,1.82787 0,0.0348 -0.0557,0.12481 -0.1238,0.20004 -0.073,0.0806 -0.10328,0.21521 -0.0739,0.32774 0.0458,0.17497 0.0827,0.18604 0.44108,0.13229 0.35719,-0.0536 0.38108,-0.0465 0.27516,0.0811 -0.0638,0.0769 -0.0918,0.13975 -0.0622,0.13975 0.0296,0 -0.006,0.14242 -0.0784,0.3165 -0.0727,0.17407 -0.16444,0.45982 -0.2038,0.635 -0.0678,0.30159 -0.0605,0.3185 0.13761,0.3185 0.11546,0 0.31381,-0.10463 0.44272,-0.23354 0.34745,-0.34744 1.19379,-1.06132 1.53144,-1.29174 0.16298,-0.11122 0.31538,-0.22814 0.33866,-0.25981 0.0233,-0.0317 0.48049,-0.2697 1.016,-0.52896 0.91822,-0.44453 1.52802,-0.64433 2.921,-0.95705 1.05174,-0.23611 3.53863,-0.16851 4.27567,0.11622 0.0699,0.027 0.23862,0.065 0.37504,0.0844 0.62268,0.0888 2.53092,0.91317 2.47918,1.07108 -0.017,0.0519 -0.16134,0.10359 -0.32074,0.11483 -0.789,0.0556 -2.24437,0.49522 -2.44667,0.73897 -0.0731,0.0881 -0.0508,0.14518 0.0973,0.24896 0.10572,0.074 0.24089,0.13463 0.30037,0.13463 0.16125,0 0.13068,0.15175 -0.04,0.19857 -0.0815,0.0224 -0.30057,0.0657 -0.48683,0.0964 -0.34143,0.0562 -1.41892,0.40287 -2.20134,0.70817 -0.58598,0.22865 -0.57305,0.42394 0.0423,0.63984 0.25611,0.0898 0.48361,0.1781 0.50554,0.19612 0.0715,0.0587 -0.19967,0.18764 -0.67488,0.321 -0.70535,0.19795 -1.63533,0.48775 -1.778,0.55406 -0.0699,0.0325 -0.2794,0.10664 -0.46566,0.16484 -0.46618,0.14565 -0.57563,0.24044 -0.43735,0.37872 0.0595,0.0596 0.22994,0.135 0.37864,0.16766 0.3566,0.0783 0.34158,0.18804 -0.0471,0.34413 -0.50647,0.20339 -1.49289,0.74129 -1.7821,0.9718 -0.14606,0.11641 -0.27633,0.30607 -0.28948,0.42146 -0.0227,0.19917 0.004,0.21277 0.52642,0.26861 1.00744,0.10765 1.98764,0.25663 2.159,0.32814 0.0931,0.0389 0.32173,0.11654 0.508,0.17261 0.54666,0.16458 2.04902,0.90728 2.61149,1.291 0.54071,0.36888 2.00284,1.80395 2.00284,1.96577 0,0.051 0.1143,0.20223 0.254,0.33607 0.1397,0.13384 0.254,0.31053 0.254,0.39264 0,0.0821 0.0519,0.17975 0.1153,0.21699 0.2045,0.12008 1.07003,2.06074 1.07003,2.39917 0,0.22796 -0.0635,0.21215 -0.5506,-0.13718 -0.23269,-0.16685 -0.63261,-0.43869 -0.88873,-0.60407 -0.25612,-0.16538 -0.56092,-0.36492 -0.67733,-0.44343 -0.31319,-0.21121 -1.0884,-0.44242 -1.27973,-0.3817 -0.18076,0.0574 -0.15809,0.26717 0.0635,0.58725 0.0636,0.0919 0.1156,0.21702 0.1156,0.27815 0,0.14202 -0.14281,0.0683 -1.10067,-0.5684 -0.39581,-0.26309 -1.02446,-0.62375 -1.397,-0.80148 -0.37253,-0.17772 -0.74076,-0.35499 -0.81828,-0.39391 -0.25971,-0.13041 -0.36863,0.12925 -0.21658,0.51633 0.0727,0.18515 0.10195,0.33664 0.0649,0.33664 -0.037,0 -0.2827,-0.0953 -0.54594,-0.21166 -0.26324,-0.11642 -0.6308,-0.21167 -0.81682,-0.21167 h -0.3382 l 0.13628,0.20799 c 0.075,0.1144 0.24263,0.27632 0.37261,0.35984 0.84829,0.54501 2.34727,2.0751 2.78782,2.84568 0.11136,0.19479 0.26843,0.46846 0.34905,0.60816 0.89132,1.54458 1.22425,2.84111 1.21752,4.74133 -0.002,0.65193 -0.0434,1.27974 -0.0913,1.39514 l -0.0871,0.2098 -0.13915,-0.2691 c -0.0765,-0.148 -0.13916,-0.31181 -0.13916,-0.36402 0,-0.0522 -0.0476,-0.14802 -0.10583,-0.21293 -0.12222,-0.13628 -0.15065,-0.17252 -0.64063,-0.81668 -0.62961,-0.82769 -0.94687,-0.89992 -0.94687,-0.21556 0,0.29136 -0.0141,0.31367 -0.127,0.20078 -0.0699,-0.0699 -0.127,-0.18395 -0.127,-0.25355 0,-0.0696 -0.0928,-0.23681 -0.20617,-0.37157 -0.1134,-0.13476 -0.23113,-0.34448 -0.26164,-0.46604 -0.0305,-0.12156 -0.10738,-0.24093 -0.17081,-0.26528 -0.0634,-0.0243 -0.26002,-0.33717 -0.43686,-0.69518 -0.30427,-0.61599 -0.63415,-0.97803 -0.76867,-0.8436 -0.0335,0.0335 -0.0608,0.2671 -0.0608,0.51922 0,0.25212 -0.0191,0.45825 -0.0423,0.45807 -0.0521,-4e-4 -0.42333,-0.53906 -0.42333,-0.61418 0,-0.0298 -0.18098,-0.30734 -0.40217,-0.61671 -0.22119,-0.30938 -0.4592,-0.64458 -0.52891,-0.74489 -0.0697,-0.10032 -0.19354,-0.25625 -0.27517,-0.34652 -0.0816,-0.0903 -0.14842,-0.1906 -0.14842,-0.22296 0,-0.0323 -0.0764,-0.0788 -0.16968,-0.1032 -0.19854,-0.0519 -0.30562,0.22938 -0.21888,0.57496 0.0292,0.11642 0.0296,0.21167 8.5e-4,0.21167 -0.0288,0 -0.45281,-0.40005 -0.94235,-0.889 -0.48955,-0.48895 -0.94419,-0.889 -1.01033,-0.889 -0.0661,0 -0.14219,-0.0572 -0.16899,-0.127 -0.0268,-0.0699 -0.0864,-0.127 -0.13242,-0.127 -0.046,0 -0.39438,-0.20482 -0.77411,-0.45515 -0.87174,-0.57468 -1.0114,-0.64552 -1.27252,-0.64552 -0.27326,0 -0.30911,0.0673 -0.34085,0.63929 -0.0301,0.54236 0.10793,0.76934 0.4064,0.66832 0.28222,-0.0955 0.75083,-0.10507 0.9948,-0.0203 0.12334,0.0429 0.39956,0.25076 0.61383,0.46201 0.37252,0.36726 0.3895,0.40503 0.3877,0.86254 -10e-4,0.34411 -0.0484,0.5379 -0.16745,0.69013 -0.0911,0.11642 -0.16641,0.25285 -0.16745,0.30319 -0.001,0.0503 -0.10008,0.14408 -0.2201,0.20832 -0.35406,0.18948 -0.42223,0.40336 -0.21142,0.66323 0.44911,0.55362 0.54849,1.3424 0.22697,1.80144 -0.15546,0.22196 -0.69524,0.53503 -1.04202,0.60439 -0.31669,0.0633 -0.87424,-0.08 -1.00457,-0.2582 -0.0844,-0.11549 -0.11698,-0.10947 -0.27786,0.0514 -0.15283,0.15283 -0.18233,0.28122 -0.18294,0.79605 -4e-4,0.33761 -0.0395,1.05199 -0.0869,1.5875 -0.15021,1.69675 -0.15852,1.90501 -0.24986,6.26534 -0.0839,4.00419 -0.066,9.00811 0.0418,11.72633 0.11473,2.8914 0.313181,6.28955 0.382731,6.55372 0.0418,0.15861 0.0576,0.31812 0.0351,0.35446 -0.0225,0.0363 0.0142,0.45901 0.0815,0.93928 0.0673,0.48026 0.18434,1.46376 0.26012,2.18554 0.0758,0.72178 0.17301,1.55062 0.21607,1.84186 0.15522,1.04974 0.24969,1.69698 0.46647,3.19581 0.12123,0.8382 0.29322,1.80975 0.38219,2.159 0.089,0.34925 0.21779,0.9398 0.28626,1.31233 0.2151,1.17038 0.5604,2.78696 0.63295,2.96333 0.077,0.18727 0.22056,0.74856 0.38971,1.524 0.0609,0.2794 0.17113,0.6223 0.24484,0.762 0.0737,0.1397 0.13426,0.28545 0.13455,0.32388 10e-4,0.1763 0.7114,1.88825 0.81895,1.97442 0.0818,0.0655 0.51075,0.0886 1.32346,0.0711 2.71617,-0.0584 2.6713,-0.0551 2.72883,-0.20063 0.0621,-0.15702 0.24063,-1.54869 0.41942,-3.26942 0.12727,-1.22494 0.2216,-1.861 0.4269,-2.87867 0.0658,-0.32597 0.20133,-1.12607 0.30126,-1.778 0.28916,-1.88646 0.7,-4.03646 0.8413,-4.40267 0.0359,-0.0931 0.11136,-0.39793 0.16762,-0.67733 0.24254,-1.20459 0.75628,-3.31152 0.9703,-3.97933 0.0597,-0.18627 0.15552,-0.51012 0.21293,-0.71967 0.0574,-0.20955 0.15564,-0.5334 0.21828,-0.71967 0.0626,-0.18626 0.19339,-0.64346 0.29057,-1.016 0.15755,-0.60399 0.37085,-1.37242 0.58753,-2.11666 0.10312,-0.35418 0.56981,-1.80963 0.6787,-2.11667 0.0495,-0.1397 0.35784,-1.0922 0.68509,-2.11667 0.32725,-1.02446 0.65123,-2.03411 0.71994,-2.24366 0.15327,-0.46739 0.1551,-0.57377 0.0123,-0.71655 -0.0926,-0.0926 -0.2114,-0.0693 -0.6923,0.13585 -0.31929,0.13621 -0.75731,0.37467 -0.97339,0.52991 -0.39595,0.28446 -0.85563,0.5516 -0.74539,0.43318 0.07,-0.0752 -0.13167,-0.29773 -0.26986,-0.29773 -0.0978,0 -0.45852,0.36175 -0.7893,0.79154 -0.1021,0.13266 -0.26143,0.31543 -0.35407,0.40617 -0.16698,0.16355 -0.16909,0.16348 -0.24577,-0.008 -0.10477,-0.23481 -0.26889,-0.2179 -0.49653,0.0512 -0.10447,0.12347 -0.27566,0.31954 -0.38044,0.43569 -0.10477,0.11616 -0.1905,0.2346 -0.1905,0.2632 0,0.0286 -0.0991,0.15884 -0.22014,0.28942 -0.20186,0.21769 -0.23231,0.22641 -0.3665,0.10497 -0.0805,-0.0729 -0.1852,-0.13245 -0.23268,-0.13245 -0.0984,0 -0.95868,0.93112 -0.95868,1.03765 0,0.0384 -0.0857,0.18614 -0.1905,0.32824 l -0.1905,0.25837 -0.0429,-0.23928 c -0.079,-0.4403 0.069,-1.79943 0.25425,-2.33468 0.43835,-1.26665 1.32811,-2.41421 2.58857,-3.33859 0.20703,-0.15183 0.23268,-0.2079 0.15491,-0.33867 -0.0513,-0.0862 -0.20454,-0.168 -0.34061,-0.18181 -0.22141,-0.0225 -0.95038,0.13087 -1.31151,0.27585 -0.10298,0.0413 -0.1494,-0.009 -0.18838,-0.20378 -0.0414,-0.2069 -0.0947,-0.25864 -0.26666,-0.25864 -0.11822,0 -0.28109,0.0348 -0.36195,0.0774 -0.30294,0.15951 -1.0298,0.43058 -1.15457,0.43058 -0.0712,0 -0.17277,-0.0808 -0.22565,-0.17967 -0.0819,-0.15308 -0.14816,-0.17245 -0.44748,-0.13085 -0.19323,0.0268 -0.63707,0.20253 -0.98632,0.3904 -0.34925,0.18788 -0.76835,0.40868 -0.93133,0.49069 -0.16299,0.082 -0.32681,0.19672 -0.36405,0.25493 -0.12575,0.19658 -0.24911,0.11479 -0.19154,-0.127 0.11043,-0.46384 0.73233,-1.61901 0.91542,-1.70039 0.0349,-0.0155 0.0635,-0.0632 0.0635,-0.10604 0,-0.0999 0.97822,-1.08182 1.31571,-1.32073 1.16103,-0.82191 2.85542,-1.39599 4.05184,-1.37283 0.34461,0.007 0.66853,-0.0138 0.71984,-0.0455 0.1629,-0.10068 0.10887,-0.38632 -0.0731,-0.38632 -0.17173,0 -0.38351,-0.2871 -0.30522,-0.41377 0.1017,-0.16456 -0.5843,-0.51756 -1.00579,-0.51756 -0.31383,0 -0.40942,-0.17508 -0.21093,-0.38636 l 0.17318,-0.18434 -0.29585,-0.17456 c -0.16271,-0.096 -0.53619,-0.23805 -0.82994,-0.31567 -0.84755,-0.22395 -0.81142,-0.20115 -0.58711,-0.37035 0.13949,-0.10522 0.18391,-0.20106 0.14704,-0.31724 -0.0683,-0.2152 -0.91539,-0.42912 -2.59169,-0.65448 -0.19389,-0.0261 0.55978,-0.47674 1.2295,-0.7352 0.70314,-0.27135 1.56296,-0.4178 2.453,-0.4178 0.70184,0 1.73131,0.18983 2.0879,0.38499 0.1236,0.0677 0.27969,0.12301 0.34687,0.12301 0.2407,0 1.55605,0.95802 2.12704,1.54921 0.59239,0.61335 0.96284,0.81808 0.87542,0.4838 -0.0256,-0.0979 -0.003,-0.1709 0.0534,-0.17164 0.0688,-9.1e-4 0.0705,-0.0198 0.006,-0.0635 -0.0506,-0.0342 -0.197,-0.24302 -0.32534,-0.46402 -0.19493,-0.33568 -0.21222,-0.40992 -0.10505,-0.45105 0.22492,-0.0863 0.22985,-0.28828 0.0173,-0.70774 -0.21559,-0.42544 -0.20638,-0.51373 0.0535,-0.51373 0.22869,0 0.2013,-0.43522 -0.0564,-0.89688 -0.25732,-0.46089 -0.26574,-0.57634 -0.0377,-0.51671 0.12888,0.0337 0.19415,-0.008 0.25179,-0.15914 0.0867,-0.22798 -0.0923,-0.62966 -0.5781,-1.29747 -0.32558,-0.44757 -0.33403,-0.51647 -0.0633,-0.51647 0.198,0 0.34268,0.047 0.94811,0.30823 0.14674,0.0633 0.29249,0.11511 0.3239,0.11511 0.0314,0 0.32714,0.15771 0.65719,0.35047 1.53634,0.89727 2.72369,2.66361 2.8354,4.21804 0.0651,0.90588 0.19244,1.10141 0.51228,0.78665 0.42676,-0.41996 1.61497,-1.29116 1.76099,-1.29116 0.0289,0 0.17258,-0.051 0.31932,-0.11327 0.68308,-0.29001 1.18448,-0.41131 2.0568,-0.49758 0.81463,-0.0806 1.04534,-0.073 1.69088,0.0552 0.41114,0.0816 0.92834,0.24008 1.14934,0.35207 0.221,0.11199 0.43775,0.20362 0.48168,0.20362 0.16471,0 1.02643,0.54808 1.02643,0.65284 0,0.0738 -0.13009,0.109 -0.40217,0.10867 -0.57105,-6.9e-4 -2.24688,0.26678 -2.35616,0.37605 -0.11661,0.11661 -0.0532,0.31267 0.14704,0.45474 0.23277,0.16512 0.18906,0.27036 -0.11228,0.27036 -0.47569,0 -1.37376,0.18658 -1.70672,0.35458 -0.3184,0.16065 -0.32161,0.16703 -0.18698,0.37249 0.1664,0.25396 0.12513,0.33646 -0.20091,0.40167 -0.35361,0.0707 -1.38966,0.75405 -1.60783,1.06044 l -0.18334,0.25748 0.30717,0.0576 c 0.16895,0.0317 0.44638,0.0168 0.61651,-0.0332 0.57609,-0.16907 1.36133,-0.20997 2.0275,-0.1056 1.39738,0.21894 2.20175,0.49696 3.13705,1.08427 0.54794,0.34407 1.86208,1.57576 1.95246,1.82995 0.0189,0.0531 0.12831,0.22058 0.24317,0.37213 0.42256,0.55756 0.99191,2.03926 0.84142,2.18975 -0.0548,0.0548 -0.12416,0.0121 -0.78027,-0.48095 -0.89294,-0.67097 -1.56861,-1.03698 -1.77096,-0.95933 -0.0842,0.0323 -0.10332,0.14221 -0.0691,0.39712 l 0.0473,0.35246 -0.20426,-0.14664 c -0.11234,-0.0806 -0.39698,-0.27038 -0.63254,-0.42162 -0.23555,-0.15125 -0.50225,-0.32272 -0.59267,-0.38104 -0.51207,-0.3303 -0.99212,-0.3987 -1.0385,-0.14796 -0.0543,0.29382 -0.14184,0.30576 -0.63679,0.0869 -0.26539,-0.11736 -0.7579,-0.28518 -1.09447,-0.37292 -0.63931,-0.16665 -0.73493,-0.14205 -0.73766,0.18984 -10e-4,0.17088 0.0229,0.17159 -0.96757,-0.0282 -0.54983,-0.11089 -1.06573,-0.056 -1.06573,0.1134 0,0.13077 0.14003,0.26891 0.80434,0.79348 0.60754,0.47974 1.23982,1.14787 1.66719,1.76172 0.30746,0.44161 0.66114,1.13514 0.66114,1.29641 0,0.0452 0.029,0.095 0.0645,0.11048 0.0355,0.0155 0.15498,0.30721 0.26554,0.6482 0.16505,0.50906 0.20274,0.81202 0.21065,1.69334 0.0119,1.33055 -0.0432,1.71154 -0.4063,2.80902 -0.26025,0.78657 -0.30432,0.83728 -0.44235,0.50898 -0.0635,-0.15093 -0.11539,-0.35716 -0.11539,-0.45829 0,-0.10113 -0.10834,-0.51855 -0.24075,-0.9276 -0.27899,-0.86189 -0.58811,-1.25982 -0.85107,-1.0956 -0.14047,0.0877 -0.16651,0.0677 -0.22231,-0.17056 -0.0348,-0.14847 -0.0563,-0.30403 -0.0478,-0.3457 0.0129,-0.0636 -0.0913,-0.41792 -0.31391,-1.06723 -0.0239,-0.0699 -0.0344,-0.19902 -0.0232,-0.28704 0.015,-0.1182 -0.0166,-0.14585 -0.12107,-0.10578 -0.0917,0.0352 -0.1291,0.0173 -0.10636,-0.0509 0.0193,-0.0578 -0.0203,-0.16047 -0.0879,-0.2281 -0.10751,-0.10751 -0.13763,-0.10291 -0.23964,0.0366 -0.0642,0.0878 -0.11667,0.19038 -0.11667,0.22805 0,0.21061 -0.15673,0.01 -0.2931,-0.37602 -0.0865,-0.24448 -0.20829,-0.51965 -0.27072,-0.61151 -0.0624,-0.0918 -0.11351,-0.21722 -0.11351,-0.27859 0,-0.17974 -0.35827,-0.61273 -0.50699,-0.61273 -0.0751,0 -0.18516,0.0476 -0.24467,0.10583 -0.087,0.0851 -0.16463,0.0396 -0.39667,-0.23283 -0.15867,-0.18627 -0.28905,-0.36528 -0.28975,-0.39781 -0.002,-0.0969 -0.34652,-0.4305 -0.94967,-0.91984 -0.93914,-0.76195 -1.05944,-0.84135 -1.27461,-0.84135 -0.17116,0 -0.22962,0.069 -0.3409,0.40216 -0.19762,0.59167 -0.48005,1.39368 -0.55906,1.5875 -0.11471,0.28142 -0.27155,0.74026 -0.39068,1.143 -0.10413,0.35203 -0.22843,0.72171 -0.38431,1.143 -0.0345,0.0931 -0.12391,0.39794 -0.19878,0.67734 -0.0749,0.2794 -0.23199,0.8509 -0.34916,1.27 -0.11717,0.4191 -0.34435,1.26035 -0.50486,1.86946 -0.1605,0.6091 -0.33157,1.21199 -0.38014,1.33976 -0.0486,0.12777 -0.1669,0.62001 -0.26295,1.09387 -0.096,0.47387 -0.24893,1.14732 -0.33976,1.49657 -0.0908,0.34925 -0.2205,0.9779 -0.28817,1.397 -0.19119,1.18412 -0.28294,1.65147 -0.41485,2.11326 -0.13112,0.45903 -0.34069,1.8674 -0.47611,3.19958 -0.19623,1.93049 -0.26036,2.48334 -0.30137,2.59826 -0.10194,0.28566 -0.13698,5.47748 -0.0406,6.01657 0.0541,0.30268 0.11818,0.70273 0.14238,0.889 0.0823,0.63311 0.33189,0.889 0.86724,0.889 0.45974,0 2.67625,0.66265 3.43945,1.02826 0.56853,0.27235 0.75708,0.40318 0.59267,0.41123 -0.68904,0.0337 -14.49541,0.0336 -16.891004,-1.6e-4 z"
       id="path1" /></g></svg>
