<?xml version="1.0" encoding="UTF-8" standalone="no"?>
<!-- Created with Inkscape (http://www.inkscape.org/) -->

<svg
   width="42.756668mm"
   height="64.770004mm"
   viewBox="0 0 42.756668 64.770004"
   version="1.1"
   id="svg1"
   xml:space="preserve"
   inkscape:version="1.3.2 (091e20e, 2023-11-25)"
   sodipodi:docname="p2.svg"
   xmlns:inkscape="http://www.inkscape.org/namespaces/inkscape"
   xmlns:sodipodi="http://sodipodi.sourceforge.net/DTD/sodipodi-0.dtd"
   xmlns="http://www.w3.org/2000/svg"
   xmlns:svg="http://www.w3.org/2000/svg"><sodipodi:namedview
     id="namedview1"
     pagecolor="#ffffff"
     bordercolor="#000000"
     borderopacity="0.25"
     inkscape:showpageshadow="2"
     inkscape:pageopacity="0.0"
     inkscape:pagecheckerboard="0"
     inkscape:deskcolor="#d1d1d1"
     inkscape:document-units="mm"
     showgrid="false"
     inkscape:zoom="1.3597433"
     inkscape:cx="40.448811"
     inkscape:cy="104.79919"
     inkscape:window-width="1336"
     inkscape:window-height="740"
     inkscape:window-x="0"
     inkscape:window-y="38"
     inkscape:window-maximized="0"
     inkscape:current-layer="layer1" /><defs
     id="defs1" /><g
     inkscape:label="Layer 1"
     inkscape:groupmode="layer"
     id="layer1"
     transform="translate(-76.11882,-20.59033)"><path
       style="fill:#000000"
       d="m 84.500916,85.093219 c -1.8e-4,-0.0973 0.30182,-0.30966 0.8889,-0.62513 0.32597,-0.17516 0.64982,-0.36185 0.71967,-0.41488 0.0699,-0.053 0.2794,-0.1662 0.46567,-0.25151 0.18627,-0.0853 0.43392,-0.20829 0.55033,-0.2733 0.23225,-0.12968 0.7637,-0.38537 1.35467,-0.65174 0.41953,-0.1891 2.60126,-0.90806 2.75556,-0.90806 0.41417,0 0.55685,-1.40743 0.34444,-3.3975 -0.13728,-1.28609 -0.24597,-1.95928 -0.59202,-3.66649 -0.11263,-0.55567 -0.18493,-1.06206 -0.16066,-1.12529 0.0248,-0.0647 -0.003,-0.10421 -0.0632,-0.0904 -0.0678,0.0155 -0.16096,-0.17816 -0.25296,-0.52571 -0.20574,-0.77719 -0.49873,-1.618179 -0.64053,-1.838516 -0.0664,-0.103137 -0.12068,-0.249658 -0.12068,-0.325604 0,-0.07595 -0.0551,-0.23921 -0.12239,-0.362812 -0.0673,-0.123601 -0.18647,-0.37713 -0.2648,-0.563397 -0.0783,-0.186266 -0.28995,-0.630234 -0.47027,-0.986595 -0.18033,-0.35636 -0.32787,-0.706064 -0.32787,-0.777119 0,-0.07106 -0.0495,-0.179537 -0.11003,-0.241071 -0.0605,-0.06154 -0.20829,-0.302381 -0.32838,-0.535215 -0.12009,-0.232833 -0.29813,-0.575733 -0.39564,-0.762 -0.0975,-0.186266 -0.53076,-0.878185 -0.96279,-1.537596 -0.68206,-1.041057 -0.88087,-1.266709 -1.28121,-1.454204 -0.0398,-0.01865 -0.0433,0.05633 -0.008,0.166616 0.0356,0.110285 0.0582,0.459364 0.0502,0.775732 -0.008,0.316368 0.0188,0.640218 0.0595,0.719667 0.0407,0.07945 0.0979,0.244879 0.12718,0.367623 0.0422,0.17696 0.0183,0.232296 -0.11529,0.26724 -0.23923,0.06256 -0.21281,0.349358 0.0865,0.939687 0.29715,0.58597 0.29498,0.574491 0.10476,0.555141 -0.0815,-0.0083 -0.19579,-0.01068 -0.254,-0.0053 -0.21623,0.01992 -0.0745,0.694301 0.21999,1.046916 0.18735,0.224311 -0.0412,0.196068 -0.53407,-0.066 -0.68532,-0.364388 -1.32927,-1.119848 -1.69385,-1.987164 -0.0881,-0.209551 -0.21231,-0.438151 -0.27607,-0.508001 -0.10198,-0.111732 -0.13495,-0.101882 -0.27431,0.08194 -0.0871,0.114914 -0.17853,0.305414 -0.20313,0.423333 -0.0255,0.122302 -0.15577,0.276351 -0.30323,0.358626 -0.23369,0.13039 -0.2585,0.184232 -0.2585,0.561133 0,0.267292 -0.0456,0.454729 -0.127,0.522305 -0.0699,0.05797 -0.127,0.07578 -0.127,0.03958 0,-0.0362 -0.0746,0.0017 -0.16584,0.08427 -0.14959,0.135373 -0.16112,0.227975 -0.11767,0.944456 0.0265,0.436902 0.017,0.794367 -0.0211,0.794367 -0.0381,0 -0.24982,-0.189244 -0.47043,-0.420541 -0.32245,-0.338069 -0.44352,-0.554778 -0.61735,-1.105038 -0.39539,-1.251637 -0.21959,-2.454869 0.48416,-3.313702 0.69545,-0.848701 0.51168,-1.305129 -0.31939,-0.793262 -0.41359,0.254738 -0.44054,0.2571 -0.508,0.04454 -0.11636,-0.366634 -0.64225,-0.153096 -1.05833,0.429737 -0.29142,0.408213 -0.508,0.534254 -0.508,0.295636 0,-0.06671 -0.0785,-0.146222 -0.17453,-0.176688 -0.22086,-0.0701 -0.65719,0.219166 -0.92903,0.615888 -0.18754,0.273702 -0.20607,0.281636 -0.31443,0.134635 -0.15422,-0.209236 -0.11443,-0.97948 0.0766,-1.482625 0.15411,-0.405923 0.80984,-1.425249 0.91686,-1.425249 0.0329,0 0.19236,-0.128646 0.35426,-0.28588 0.1619,-0.157234 0.36981,-0.309826 0.46203,-0.339094 0.0922,-0.02927 0.37517,-0.15804 0.62879,-0.286162 0.42578,-0.215092 0.46113,-0.255594 0.46113,-0.528371 0,-0.268475 -0.0301,-0.305292 -0.3303,-0.403632 -0.41185,-0.134928 -0.63027,-0.151739 -0.88478,-0.0681 -0.18693,0.06143 -0.19556,0.04944 -0.14153,-0.196576 0.0505,-0.229968 0.0301,-0.272432 -0.16684,-0.347314 -0.13973,-0.05313 -0.39779,-0.05812 -0.68397,-0.01324 -0.25277,0.03964 -0.45958,0.04266 -0.45958,0.0067 0,-0.147568 0.46672,-0.604417 0.83443,-0.816774 0.21628,-0.12491 0.41229,-0.250213 0.43557,-0.278451 0.0233,-0.02824 0.25871,-0.102182 0.52318,-0.164317 0.46236,-0.108632 1.426,-0.08765 2.30432,0.05018 l 0.32982,0.05176 -0.0676,-0.455202 c -0.12654,-0.852688 -0.11813,-1.541045 0.0237,-1.936869 0.28225,-0.787819 0.68103,-1.27387 1.45829,-1.777423 0.44637,-0.289191 0.6238,-0.219015 0.40078,0.158522 -0.0793,0.134254 -0.15322,0.463901 -0.16593,0.740002 -0.022,0.47868 -0.0147,0.498253 0.18875,0.507079 0.11642,0.005 0.23513,0.01458 0.2638,0.02117 0.0287,0.0066 -0.0183,0.26599 -0.10439,0.57644 l -0.15652,0.564454 0.18906,0.338018 c 0.32775,0.586004 0.40769,0.585197 1.00302,-0.01013 0.60958,-0.609586 1.12542,-0.879385 2.04362,-1.068873 0.53733,-0.11089 0.7651,-0.118541 1.25697,-0.04222 0.66924,0.103836 1.37909,0.377542 1.17546,0.453234 -0.0689,0.02563 -0.33253,0.116356 -0.58576,0.201623 -0.54914,0.184908 -0.72025,0.389291 -0.47711,0.569865 0.19707,0.146353 0.22315,0.12184 -0.48593,0.456806 -0.62617,0.295797 -0.71542,0.403314 -0.56624,0.68207 0.0863,0.16115 0.0597,0.216046 -0.22631,0.468758 -0.41789,0.369176 -0.26951,0.374501 0.75424,0.02707 1.07025,-0.363215 2.02811,-0.419453 2.79538,-0.164123 0.64395,0.214293 1.16552,0.533635 1.61684,0.989943 0.27819,0.281265 0.64787,0.853785 0.64787,1.003355 0,0.0871 -0.21326,0.03919 -0.55033,-0.123627 -0.33948,-0.163978 -0.8032,-0.224896 -0.80563,-0.105833 -7.1e-4,0.03493 -0.0327,0.112984 -0.071,0.173465 -0.0557,0.08784 -0.1573,0.07546 -0.50488,-0.06154 -0.49443,-0.194888 -0.65532,-0.166854 -0.72908,0.127038 -0.0522,0.20781 -0.32642,0.287428 -0.42739,0.124067 -0.0755,-0.122076 -0.46814,0.08336 -0.46494,0.243231 0.003,0.16736 0.19719,0.43091 0.31694,0.43091 0.15227,0 0.73202,0.719866 0.98933,1.228418 0.23331,0.461136 0.40386,1.396248 0.25464,1.396248 -0.0363,0 -0.21215,-0.149076 -0.39076,-0.331281 -0.18999,-0.193821 -0.38651,-0.319468 -0.47362,-0.302811 -0.0819,0.01566 -0.17747,0.03139 -0.21239,0.03495 -0.0349,0.0036 -0.0635,0.06363 -0.0635,0.133478 0,0.20127 -0.11119,0.151354 -0.46113,-0.207021 -0.27477,-0.281387 -0.36509,-0.326235 -0.5732,-0.284613 -0.17148,0.0343 -0.31652,-0.0012 -0.47419,-0.116197 -0.31355,-0.228592 -0.52772,-0.297988 -0.64005,-0.207391 -0.0603,0.04862 -0.27566,-0.01128 -0.58835,-0.163638 -0.48587,-0.23674 -0.63273,-0.277818 -0.92439,-0.258557 -0.18196,0.01202 -0.1576,0.274015 0.0464,0.499478 0.079,0.08723 0.14354,0.191621 0.14354,0.231972 0,0.04035 0.0903,0.170702 0.20071,0.289667 0.11039,0.118965 0.33804,0.42585 0.50589,0.681966 0.16784,0.256117 0.36405,0.541867 0.43601,0.635 0.25221,0.326417 0.72006,1.073866 0.72006,1.150391 0,0.0425 0.0319,0.07728 0.0709,0.07728 0.039,0 0.15949,0.20955 0.26776,0.465667 0.10826,0.256117 0.22441,0.465667 0.25811,0.465667 0.0337,0 0.1238,0.123825 0.20025,0.275166 0.0764,0.151342 0.17011,0.332317 0.20815,0.402167 0.038,0.06985 0.12033,0.22225 0.18286,0.338667 0.0625,0.116416 0.22174,0.412635 0.3538,0.658264 0.13206,0.245629 0.31743,0.664729 0.41194,0.931334 0.0945,0.266604 0.20792,0.550893 0.25202,0.631753 0.0441,0.08086 0.0802,0.221013 0.0802,0.311452 0,0.09044 0.056,0.220456 0.1245,0.288926 0.0685,0.06847 0.31904,0.728416 0.55684,1.46655 0.23779,0.73813 0.46752,1.40821 0.5105,1.48907 0.043,0.0809 0.0782,0.20002 0.0782,0.26479 0,0.0648 0.11407,0.47487 0.25349,0.91132 0.28629,0.89624 0.49405,1.83199 0.81533,3.67221 0.21605,1.23753 0.51999,1.66617 0.70541,0.99483 0.13866,-0.50202 0.45091,-3.86212 0.5488,-5.9055 0.0268,-0.5588 0.0674,-1.2827 0.0904,-1.60867 0.28836,-4.09898 0.31667,-20.0447 0.0394,-22.182664 -0.0423,-0.325967 -0.078,-1.049867 -0.0794,-1.608667 -10e-4,-0.5588 -0.0402,-1.3208 -0.0864,-1.693333 -0.0461,-0.372533 -0.14316,-1.477434 -0.21566,-2.455334 -0.0725,-0.9779 -0.15315,-1.8493 -0.17923,-1.936445 -0.0399,-0.133387 -0.10421,-0.150662 -0.40649,-0.10923 -0.45061,0.06176 -1.14901,0.293209 -1.31633,0.436221 -0.0699,0.0597 -0.34822,0.225467 -0.61861,0.368361 -0.47399,0.250496 -0.94409,0.566909 -1.43568,0.966333 -0.30383,0.24687 -0.45087,0.243479 -0.41533,-0.0096 0.0154,-0.10982 0.005,-0.29296 -0.024,-0.406977 -0.042,-0.16736 -0.0882,-0.196347 -0.23971,-0.150438 -0.1903,0.05766 -1.05479,0.919761 -1.31104,1.307422 -0.33411,0.505454 -0.88783,1.192028 -0.92854,1.151321 -0.0244,-0.0244 -0.058,-0.205337 -0.0747,-0.402074 -0.0167,-0.196738 -0.0651,-0.392437 -0.10751,-0.434887 -0.15783,-0.15783 -0.4328,0.04737 -0.6909,0.515593 -0.14624,0.265309 -0.40164,0.730031 -0.56755,1.032714 -0.16592,0.302683 -0.38636,0.701206 -0.48987,0.885606 -0.20354,0.362587 -0.41781,0.50956 -0.35861,0.245978 0.049,-0.218109 -0.164,-0.623584 -0.32755,-0.623584 -0.36091,0 -1.15829,1.169863 -1.81034,2.656013 -0.0995,0.226791 -0.21191,0.379191 -0.24978,0.338667 -0.11369,-0.121622 -0.24214,-0.86944 -0.30363,-1.767693 -0.0843,-1.231539 0.1332,-2.745304 0.52486,-3.652783 0.0633,-0.146737 0.11514,-0.312323 0.11514,-0.367968 0,-0.147942 0.72356,-1.451039 0.92689,-1.669289 0.0956,-0.102594 0.17378,-0.220088 0.17378,-0.261099 0,-0.193145 1.47767,-1.693582 1.96342,-1.993668 0.90298,-0.557849 1.06009,-0.696303 1.21477,-1.07052 0.0868,-0.210097 0.24547,-0.511136 0.35252,-0.668976 0.25398,-0.374509 0.24552,-0.501336 -0.0382,-0.572628 -0.35671,-0.08963 -1.94234,0.115499 -2.80859,0.363339 -0.42625,0.121954 -0.79873,0.198008 -0.82773,0.169009 -0.0626,-0.06256 0.23767,-0.646405 0.33241,-0.646405 0.11635,0 0.0692,-0.403744 -0.0526,-0.450484 -0.14325,-0.05497 -1.2737,0.294421 -1.91404,0.591573 -0.25611,0.118853 -0.80126,0.406562 -1.21143,0.639353 -0.41016,0.232792 -0.76708,0.401932 -0.79315,0.375866 -0.0261,-0.02607 0.0201,-0.235106 0.10261,-0.464535 0.20825,-0.579106 0.1358,-0.727632 -0.32194,-0.660027 -0.47785,0.07058 -1.99944,0.834738 -2.66459,1.33819 -0.67845,0.513517 -0.86883,0.618456 -0.86883,0.478912 0,-0.05744 0.0989,-0.430259 0.21971,-0.828479 0.23949,-0.789222 0.76639,-1.882786 1.16474,-2.417369 0.28984,-0.38897 1.33544,-1.481667 1.4178,-1.481667 0.0303,0 0.19427,-0.127448 0.36433,-0.283218 0.17007,-0.15577 0.41298,-0.336684 0.53981,-0.402031 0.12684,-0.06535 0.24966,-0.13796 0.27294,-0.161361 0.0459,-0.04611 0.57818,-0.306495 1.18534,-0.57983 0.48319,-0.217525 1.21391,-0.431751 1.651,-0.48402 0.18626,-0.02228 0.55396,-0.08219 0.8171,-0.133139 0.41817,-0.08097 1.05179,-0.07846 3.66168,0.0145 0.0884,0.0031 0.19265,-0.02613 0.23157,-0.06506 0.10266,-0.102659 -0.27417,-0.59791 -0.49819,-0.65474 -0.10477,-0.02658 -0.1905,-0.0857 -0.1905,-0.13138 0,-0.04568 -0.044,-0.08305 -0.0978,-0.08305 -0.0538,0 -0.21574,-0.0888 -0.35983,-0.197335 -0.1441,-0.108533 -0.46202,-0.26846 -0.70649,-0.355392 -0.24448,-0.08693 -0.4445,-0.188631 -0.4445,-0.225999 0,-0.03737 -0.0952,-0.06794 -0.21167,-0.06794 -0.51613,0 0.0466,-0.382134 0.61383,-0.416855 0.18001,-0.01102 0.11695,-0.239448 -0.11688,-0.423379 -0.1225,-0.09635 -0.37967,-0.215016 -0.5715,-0.26369 -0.19183,-0.04867 -0.69168,-0.186615 -1.11078,-0.306535 -0.4191,-0.119921 -1.05728,-0.277353 -1.41817,-0.34985 -0.36089,-0.0725 -0.65617,-0.155367 -0.65617,-0.184155 0,-0.02879 0.21868,-0.165036 0.48596,-0.302772 0.85623,-0.44125 0.72308,-0.682822 -0.60252,-1.093164 -1.07984,-0.334267 -2.11216,-0.533257 -2.99326,-0.576978 -0.33668,-0.01671 -0.63415,-0.05238 -0.66104,-0.07926 -0.10613,-0.106135 1.44641,-0.998692 1.73716,-0.998692 0.0734,0 0.21262,-0.05551 0.30949,-0.123366 0.52553,-0.368098 2.31387,-0.651947 4.04675,-0.642311 1.05517,0.0059 1.24627,0.03062 2.08013,0.269449 0.20955,0.06002 0.42594,0.110982 0.48086,0.113255 0.0549,0.0023 0.12795,0.03222 0.16228,0.06655 0.0343,0.03433 0.12274,0.06266 0.19647,0.06294 0.0737,2.87e-4 0.24319,0.05744 0.37657,0.127 0.13338,0.06956 0.28956,0.126479 0.34707,0.126479 0.10546,0 1.18145,0.548347 1.35102,0.688507 0.0503,0.04155 0.3581,0.267413 0.68406,0.501914 0.32597,0.234502 0.63144,0.476866 0.67884,0.538589 0.0474,0.06172 0.21589,0.191115 0.37445,0.287541 l 0.28829,0.175319 0.10046,-0.193645 c 0.0553,-0.106505 0.12695,-0.334801 0.15931,-0.507325 0.24085,-1.283834 1.29659,-3.443629 1.98713,-4.06519 0.0985,-0.08871 0.17919,-0.200475 0.17919,-0.24837 0,-0.171727 1.58043,-1.640358 2.20206,-2.046293 0.71224,-0.4651 2.22049,-1.225625 2.43879,-1.229741 0.0786,-0.0015 0.21678,-0.05863 0.30717,-0.127 0.0904,-0.06837 0.25521,-0.124307 0.36627,-0.124307 h 0.20192 l -0.18049,0.232833 c -0.8082,1.042585 -1.52572,2.352086 -1.52572,2.7845 0,0.326509 0.11947,0.380398 0.49599,0.223723 0.15637,-0.06507 0.29951,-0.103111 0.31809,-0.08453 0.0414,0.04143 -0.47515,0.769415 -0.57384,0.808702 -0.039,0.01552 -0.0709,0.06332 -0.0709,0.106216 0,0.0429 -0.16428,0.315948 -0.36506,0.606778 -0.42581,0.616803 -0.65094,1.074966 -0.65094,1.324746 0,0.22443 0.10186,0.22328 0.56163,-0.0063 0.20268,-0.101223 0.39154,-0.161002 0.41971,-0.132841 0.0282,0.02816 -0.13358,0.330055 -0.35942,0.670876 -0.22584,0.340821 -0.47851,0.766558 -0.56149,0.946082 -0.16228,0.351126 -0.12689,0.647259 0.0774,0.647259 0.1487,0 0.96288,-0.517895 0.96288,-0.612477 0,-0.03567 0.0421,-0.06486 0.0936,-0.06486 0.0515,0 0.39138,-0.16744 0.75529,-0.372089 0.88187,-0.495932 2.195654,-0.935524 3.342084,-1.118265 1.13322,-0.180636 3.81248,-0.02474 4.49808,0.261722 0.16845,0.07038 0.38734,0.128555 0.48643,0.129276 0.39672,0.0029 2.67782,1.160961 2.67782,1.359486 0,0.0432 -0.17608,0.07854 -0.3913,0.07854 -1.05656,0 -3.21352,0.461771 -4.17732,0.894301 -0.41156,0.184696 -0.51438,0.26823 -0.49434,0.401635 0.0265,0.176517 0.0799,0.216324 0.5968,0.445356 0.17462,0.07737 0.3175,0.186782 0.3175,0.243142 0,0.0611 -0.45293,0.214254 -1.12184,0.379335 -0.617,0.152273 -1.19803,0.306577 -1.29116,0.342897 -0.0931,0.03632 -0.44299,0.15047 -0.77745,0.253667 -0.77755,0.239912 -0.95089,0.358131 -0.79699,0.543564 0.0619,0.07456 0.26046,0.175397 0.4413,0.224092 0.18084,0.0487 0.32861,0.134694 0.32838,0.191108 -2.3e-4,0.05641 -0.27646,0.190634 -0.61383,0.298268 -0.85988,0.274331 -1.622924,0.700685 -1.655724,0.925145 -0.0488,0.334097 0.214544,0.366745 1.158614,0.143634 1.17704,-0.27817 3.46967,-0.301717 4.5827,-0.04707 2.04675,0.468276 3.11861,1.039508 4.47597,2.385391 0.44863,0.444839 0.85425,0.863939 0.90138,0.931333 0.0471,0.06739 0.21922,0.313035 0.38243,0.545868 0.31504,0.449442 0.53535,0.887424 0.47615,0.94662 -0.0196,0.01966 -0.3735,-0.115197 -0.78633,-0.299673 -1.02521,-0.458122 -1.82097,-0.692293 -2.54772,-0.749729 -0.82318,-0.06506 -1.03256,0.121656 -0.64516,0.57532 0.0629,0.07363 0.0888,0.159354 0.0577,0.1905 -0.0311,0.03115 -0.0122,0.05663 0.0421,0.05663 0.0543,0 0.0988,0.05715 0.0988,0.127 0,0.164555 0.004,0.165213 -0.56899,-0.09692 -0.42614,-0.194997 -0.75185,-0.289628 -1.71701,-0.498848 -0.11642,-0.02524 -0.27465,-0.06484 -0.35164,-0.088 -0.35194,-0.10589 -1.13586,-0.196373 -1.31399,-0.151667 -0.27367,0.06869 -0.24656,0.232202 0.0993,0.598873 0.16298,0.172793 0.29633,0.346223 0.29633,0.385401 0,0.03918 -0.23812,0.04076 -0.52917,0.0035 -0.82312,-0.105315 -2.86825,-0.07475 -3.09033,0.04618 -0.25633,0.139591 -0.24152,0.223013 0.10472,0.589569 0.16238,0.171901 0.38234,0.445897 0.48881,0.60888 0.11227,0.171855 0.39261,0.40303 0.66738,0.550333 1.17402,0.629393 2.67553,1.96824 3.18092,2.836334 0.122,0.20955 0.30721,0.4953 0.41159,0.635 0.36576,0.489558 1.06074,2.359988 1.17969,3.175 0.0306,0.20955 0.0855,0.59055 0.12209,0.846667 0.0692,0.484379 0.0181,1.694306 -0.0714,1.692028 -0.0282,-7.17e-4 -0.22273,-0.251514 -0.43228,-0.557325 -0.20955,-0.305811 -0.42862,-0.607303 -0.48683,-0.669981 -0.0582,-0.06268 -0.10584,-0.142769 -0.10584,-0.177979 0,-0.03521 -0.32369,-0.383377 -0.71933,-0.773704 -0.59974,-0.591705 -0.75809,-0.705226 -0.9525,-0.682862 -0.22757,0.02618 -0.23279,0.03902 -0.2177,0.534823 l 0.0155,0.508 -0.26947,-0.309455 c -0.54422,-0.624977 -0.90447,-1.075403 -0.90447,-1.13088 0,-0.139479 -1.28794,-1.293632 -1.42084,-1.273246 -0.16426,0.0252 -0.1767,0.328703 -0.0323,0.787414 0.12631,0.40118 -0.0478,0.358158 -0.51385,-0.127 -0.44038,-0.458398 -1.605004,-1.535227 -1.941054,-1.794733 -0.42829,-0.330742 -0.64312,-0.173307 -0.44131,0.323406 0.0638,0.157029 0.116,0.360795 0.116,0.452815 0,0.16382 -0.006,0.163534 -0.27516,-0.01371 -0.88432,-0.581749 -2.58949,-1.209974 -2.84419,-1.047868 -0.19078,0.121424 -0.18662,0.265795 0.11651,4.048591 0.065,0.81181 0.20383,4.25604 0.20038,4.973158 -0.002,0.360337 0.0362,1.008037 0.0844,1.439334 0.24395,2.184762 0.40933,11.104093 0.37249,20.089913 -0.0238,5.8168 -0.008,7.31213 0.0784,7.42737 0.0595,0.0794 0.24156,0.1627 0.40454,0.18518 0.6248,0.0862 0.9768,0.15847 1.05834,0.21738 0.0466,0.0336 0.21801,0.0823 0.381,0.10805 0.16298,0.0258 0.35756,0.0712 0.4324,0.10083 0.18744,0.0743 0.29939,-0.24396 0.41596,-1.18255 0.14813,-1.19271 0.23755,-1.82435 0.32964,-2.32833 0.0468,-0.25612 0.14338,-0.84259 0.21462,-1.30326 0.375264,-2.42669 1.385834,-5.961054 2.435554,-8.518073 0.30804,-0.75036 1.75988,-3.748844 1.84476,-3.810001 0.0323,-0.02328 0.18203,-0.289983 0.33269,-0.592666 0.36029,-0.723832 0.55857,-1.052949 1.04288,-1.731033 0.22119,-0.309694 0.40216,-0.59345 0.40216,-0.630568 0,-0.03712 0.0738,-0.134242 0.16392,-0.21583 0.0901,-0.08159 0.20166,-0.256601 0.24778,-0.388917 0.14047,-0.402942 -0.0693,-0.487653 -1.2372,-0.499581 -0.47374,-0.0048 -0.52916,-0.02342 -0.52916,-0.177467 0,-0.230617 -0.28489,-0.324122 -0.73267,-0.240469 -0.20017,0.0374 -0.57105,0.09036 -0.82417,0.11769 l -0.46024,0.0497 0.046,-0.343096 c 0.0451,-0.33656 0.0411,-0.343095 -0.21413,-0.343095 -0.14308,0 -0.2837,0.0381 -0.31248,0.08467 -0.0288,0.04657 -0.12992,0.08467 -0.22477,0.08467 -0.0948,0 -0.27356,0.0546 -0.39717,0.121338 -0.1236,0.06674 -0.44858,0.219215 -0.72218,0.338844 l -0.49745,0.217506 0.0507,-0.253251 c 0.0762,-0.38078 0.002,-0.490468 -0.309174,-0.454506 -0.29933,0.03464 -0.64532,0.184933 -1.25967,0.547165 -0.37174,0.219186 -0.40791,0.226314 -0.40791,0.08039 0,-0.4977 0.70734,-1.641865 1.42681,-2.307975 0.935834,-0.866408 2.228054,-1.337514 3.668744,-1.337514 0.31742,0 0.57712,-0.02155 0.57712,-0.0479 0,-0.301694 -0.495,-0.543352 -1.11491,-0.544295 -0.53683,-8.16e-4 -0.606,-0.0626 -0.39764,-0.35522 0.16089,-0.225939 0.16621,-0.265875 0.0509,-0.38122 -0.10172,-0.101718 -0.35355,-0.128841 -1.19625,-0.128841 -0.58707,0 -1.0674,-0.01899 -1.0674,-0.04221 0,-0.02321 0.0952,-0.155405 0.21166,-0.293758 0.11642,-0.138353 0.21167,-0.285388 0.21167,-0.326743 0,-0.185549 -0.42169,-0.275788 -1.267154,-0.271161 -0.49052,0.0027 -0.82697,-0.01306 -0.74766,-0.035 0.0793,-0.02193 0.16695,-0.111592 0.19477,-0.199245 0.10257,-0.323185 1.553284,-1.160935 2.285714,-1.319948 0.56951,-0.123644 2.15462,-0.07289 2.57181,0.08234 0.20376,0.07582 0.49904,0.137855 0.65617,0.137855 0.25638,0 0.28568,-0.02429 0.28568,-0.236817 0,-0.265444 -0.43247,-0.730743 -0.92978,-1.000365 -0.37435,-0.202954 -0.5461,-0.363155 -0.47045,-0.438804 0.19314,-0.193137 2.58325,0.02741 2.72151,0.251122 0.0239,0.03861 0.12686,0.07239 0.22889,0.07508 0.10202,0.0027 0.30489,0.08841 0.4508,0.1905 0.14591,0.102091 0.47588,0.329938 0.73326,0.506327 0.42144,0.288822 1.07577,0.971091 1.07577,1.121698 0,0.03258 0.10478,0.184944 0.23284,0.338583 0.12806,0.153639 0.30128,0.377744 0.38495,0.498011 0.0837,0.120267 0.20749,0.218667 0.27517,0.218667 0.2212,0 0.43794,-0.308334 0.49792,-0.708357 0.0639,-0.425981 0.1036,-0.465058 0.25801,-0.253881 0.0917,0.125424 0.11844,0.119947 0.2845,-0.0583 0.15199,-0.163138 0.18499,-0.306032 0.19331,-0.836929 0.006,-0.352111 0.006,-0.668776 0,-0.703701 -0.0197,-0.124791 0.23707,-0.06079 0.31503,0.07852 0.0437,0.07811 0.16229,0.148118 0.26351,0.155574 0.2344,0.01727 0.52696,-0.51726 0.47273,-0.863687 -0.12849,-0.820683 -0.13277,-0.969691 -0.0261,-0.90938 0.0864,0.04888 0.0868,0.03835 0.002,-0.05304 -0.0582,-0.06271 -0.10584,-0.144501 -0.10584,-0.181754 0,-0.167902 0.25692,0.02151 0.81782,0.602917 0.55647,0.576829 0.67542,0.766609 1.09825,1.752285 0.31071,0.724311 0.19938,2.396046 -0.21695,3.257754 -0.25133,0.520186 -0.13411,0.614856 0.79221,0.63984 0.97163,0.0262 1.96865,0.348588 2.67334,0.864419 0.98077,0.717915 1.76628,1.797452 2.12657,2.922582 0.28832,0.900356 0.18992,1.020222 -0.39496,0.4811 -0.39386,-0.363043 -1.12148,-0.767297 -1.38107,-0.767297 -0.15293,0 -0.31196,0.210108 -0.27719,0.366214 0.0267,0.119927 -0.3536,-0.02972 -0.73164,-0.287871 -0.77531,-0.529453 -1.23708,-0.596837 -1.18785,-0.173337 0.0232,0.199679 9.3e-4,0.219314 -0.22168,0.195326 -0.13611,-0.01467 -0.33667,-0.0043 -0.44568,0.02308 -0.19101,0.04794 -0.19347,0.0589 -0.0678,0.301835 0.0717,0.138649 0.15795,0.252285 0.19168,0.252525 0.0806,5.72e-4 1.04714,0.940117 1.18241,1.149357 0.28463,0.44029 0.56939,1.062206 0.71381,1.558983 0.21843,0.751366 0.23258,2.244811 0.0269,2.836891 -0.23429,0.67433 -0.51151,1.261291 -0.64953,1.375228 -0.10803,0.08918 -0.14131,0.0569 -0.21826,-0.211666 -0.0499,-0.174293 -0.11669,-0.488345 -0.14835,-0.697895 -0.0317,-0.20955 -0.11106,-0.465385 -0.17643,-0.568522 -0.0654,-0.103136 -0.11887,-0.246828 -0.11887,-0.319315 0,-0.07249 -0.0976,-0.176268 -0.21691,-0.230625 -0.19491,-0.08881 -0.23764,-0.0736 -0.42133,0.149982 -0.17196,0.209305 -0.21799,0.228647 -0.28984,0.121813 -0.047,-0.06985 -0.11018,-0.26035 -0.14042,-0.423334 -0.0951,-0.512544 -0.54599,-1.677453 -0.66725,-1.723985 -0.0639,-0.0245 -0.2143,0.03268 -0.33431,0.127083 l -0.2182,0.171637 -0.10794,-0.25673 c -0.1716,-0.408103 -0.7487,-1.158263 -1.0036,-1.304557 -0.22048,-0.126542 -0.23632,-0.124486 -0.28768,0.03735 -0.0299,0.09419 -0.0649,0.653422 -0.0779,1.242732 -0.0254,1.156004 -0.10946,1.519216 -0.54604,2.358069 -0.29867,0.573881 -0.94623,1.370744 -1.24438,1.531276 -0.11086,0.0597 -0.20157,0.138355 -0.20157,0.174799 0,0.103785 -1.19547,0.668675 -1.55972,0.73701 -0.18519,0.03474 -0.31098,0.02875 -0.28957,-0.01379 0.77661,-1.542942 0.93807,-2.130586 0.59425,-2.16289 -0.23219,-0.02181 -0.30182,-0.01506 -0.5018,0.04869 -0.21674,0.06909 -0.2664,-0.110785 -0.0847,-0.306645 0.12374,-0.133351 0.45099,-0.795972 0.51415,-1.04104 0.024,-0.09313 0.0814,-0.29054 0.12758,-0.438682 0.12336,-0.395823 -0.0225,-0.562034 -0.39808,-0.453801 l -0.28552,0.08227 0.0735,-0.356892 c 0.11552,-0.561288 0.09,-1.928273 -0.0418,-2.240725 -0.12758,-0.302347 -0.34387,-0.358156 -0.5297,-0.136677 -0.2165,0.258028 -1.81309,2.984371 -1.92614,3.28908 -0.0176,0.04735 -0.0969,0.162297 -0.17639,0.25543 -0.0794,0.09313 -0.21361,0.359834 -0.29814,0.592667 -0.0845,0.232833 -0.22362,0.523594 -0.30907,0.646134 -0.27833,0.399127 -1.54133,4.016483 -1.99152,5.703867 -0.69823,2.617099 -0.88973,3.848829 -1.00699,6.476999 -0.0494,1.10813 -0.0302,1.51363 0.12388,2.60602 0.10033,0.71152 0.22628,1.38992 0.27987,1.50754 0.0703,0.15434 0.36997,0.34638 1.07654,0.68993 0.5385,0.26183 1.16959,0.59345 1.40243,0.73692 0.23283,0.14347 0.51858,0.31074 0.635,0.37171 0.11641,0.061 0.35881,0.23979 0.53865,0.39738 l 0.32699,0.28652 -10.381064,-0.0172 c -5.70959,-0.009 -10.38111,-0.0398 -10.38116,-0.0675 z"
       id="path1" /></g></svg>
