<?xml version="1.0" encoding="UTF-8" standalone="no"?>
<!-- Created with Inkscape (http://www.inkscape.org/) -->

<svg
   width="35.475334mm"
   height="47.667336mm"
   viewBox="0 0 35.475334 47.667336"
   version="1.1"
   id="svg1"
   xml:space="preserve"
   inkscape:version="1.3.2 (091e20e, 2023-11-25)"
   sodipodi:docname="p4.svg"
   xmlns:inkscape="http://www.inkscape.org/namespaces/inkscape"
   xmlns:sodipodi="http://sodipodi.sourceforge.net/DTD/sodipodi-0.dtd"
   xmlns="http://www.w3.org/2000/svg"
   xmlns:svg="http://www.w3.org/2000/svg"><sodipodi:namedview
     id="namedview1"
     pagecolor="#ffffff"
     bordercolor="#000000"
     borderopacity="0.25"
     inkscape:showpageshadow="2"
     inkscape:pageopacity="0.0"
     inkscape:pagecheckerboard="0"
     inkscape:deskcolor="#d1d1d1"
     inkscape:document-units="mm"
     inkscape:zoom="1.1466641"
     inkscape:cx="97.674637"
     inkscape:cy="13.081425"
     inkscape:window-width="1312"
     inkscape:window-height="723"
     inkscape:window-x="0"
     inkscape:window-y="38"
     inkscape:window-maximized="0"
     inkscape:current-layer="layer1" /><defs
     id="defs1" /><g
     inkscape:label="Layer 1"
     inkscape:groupmode="layer"
     id="layer1"
     transform="translate(-86.715721,-124.66633)"><path
       style="fill:#000000"
       d="m 98.974276,172.38912 c 0.0255,-0.0665 0.0464,-0.15569 0.0464,-0.19831 0,-0.13069 0.60554,-0.75634 0.96882,-1.00098 0.660094,-0.44453 1.968054,-0.85474 2.725974,-0.85494 0.14618,-4e-5 0.34942,-0.0678 0.45164,-0.15057 0.17731,-0.14357 0.18128,-0.17568 0.0864,-0.6985 -0.14618,-0.80591 -0.29224,-2.61156 -0.48262,-5.96667 -0.12375,-2.18076 -0.0677,-10.3545 0.0909,-13.25033 0.0803,-1.46685 0.16426,-2.77402 0.18651,-2.90481 0.0223,-0.1308 0.0575,-0.588 0.0782,-1.016 0.0208,-0.42801 0.0622,-0.97752 0.0922,-1.22116 0.11012,-0.89682 -0.0691,-1.03727 -0.85374,-0.66903 -0.42714,0.20047 -1.95601,1.08201 -2.12118,1.22307 -0.0491,0.0419 -0.21387,0.0579 -0.366284,0.0355 -0.29476,-0.0433 -0.2654,-0.0647 -1.2748,0.92922 l -0.40466,0.39845 -0.18971,-0.21818 -0.18972,-0.21819 -0.37265,0.4059 c -0.20497,0.22325 -0.37266,0.45328 -0.37266,0.51118 0,0.0579 -0.0286,0.11806 -0.0635,0.13367 -0.0349,0.0156 -0.16295,0.21881 -0.28449,0.45155 -0.25012,0.47896 -0.35282,0.52147 -0.41401,0.17136 -0.0233,-0.13322 -0.0854,-0.25653 -0.13799,-0.27403 -0.17574,-0.0584 -0.58465,0.45346 -0.95235,1.19221 -0.2002,0.40224 -0.40028,0.70893 -0.44461,0.68153 -0.0443,-0.0274 -0.0603,-0.11382 -0.0355,-0.19205 0.0266,-0.0836 -0.0188,-0.18215 -0.10999,-0.23912 -0.12867,-0.0804 -0.19095,-0.0585 -0.36518,0.1282 -0.11553,0.12379 -0.268,0.33937 -0.33884,0.47907 -0.0708,0.1397 -0.21934,0.42451 -0.33001,0.6329 l -0.20121,0.3789 -0.0746,-0.3154 c -0.1598,-0.67571 -0.62672,-0.30356 -1.60261,1.27732 l -0.40183,0.65095 -3.3e-4,-0.60847 c -3.3e-4,-0.61033 0.19722,-1.60056 0.46134,-2.31253 0.0777,-0.20955 0.17891,-0.50483 0.22482,-0.65617 0.0459,-0.15134 0.11978,-0.27516 0.16415,-0.27516 0.0444,0 0.0807,-0.0702 0.0807,-0.15591 0,-0.20667 0.85496,-1.47466 1.43934,-2.13467 0.505,-0.57036 1.30775,-1.2445 2.03701,-1.71065 0.51109,-0.32669 1.72117,-0.95387 1.98486,-1.02874 0.21653,-0.0615 0.42278,-0.38058 0.3154,-0.48796 -0.0436,-0.0436 -0.30986,-0.0826 -0.59167,-0.0866 -0.44791,-0.006 -0.52582,-0.0324 -0.61929,-0.20706 -0.0618,-0.11546 -0.18427,-0.19979 -0.29017,-0.19979 -0.26639,0 -1.15691,0.17153 -1.35448,0.26089 -0.0931,0.0421 -0.33126,0.13232 -0.52916,0.20043 l -0.35984,0.12384 v -0.25025 c 0,-0.17817 -0.0427,-0.25305 -0.14816,-0.25999 -0.27938,-0.0184 -0.48279,0.027 -0.65174,0.1453 -0.093,0.0651 -0.22731,0.11857 -0.29844,0.11871 -0.0711,1.4e-4 -0.39384,0.13349 -0.71714,0.29633 -0.68142,0.34323 -0.63985,0.33224 -0.63985,0.16908 0,-0.0698 0.0369,-0.127 0.082,-0.127 0.15858,0 -0.0183,-0.25603 -0.21013,-0.30419 -0.12873,-0.0323 -0.35497,0.0408 -0.67161,0.21696 -0.30288,0.16852 -0.53811,0.24644 -0.64322,0.21308 -0.11091,-0.0352 -0.16572,-0.0132 -0.16572,0.0665 0,0.12284 -0.41088,0.35629 -0.48922,0.27796 -0.0242,-0.0242 -0.0891,-0.1304 -0.14414,-0.236 -0.0551,-0.1056 -0.15418,-0.17847 -0.22023,-0.16192 -0.066,0.0165 -0.21532,0.0301 -0.33174,0.0301 -0.11642,4e-5 -0.26882,0.05 -0.33867,0.11099 -0.0699,0.061 -0.29845,0.1786 -0.508,0.26131 -0.20955,0.0827 -0.56365,0.25736 -0.78689,0.3881 -0.37402,0.21905 -0.65244,0.30156 -0.65244,0.19335 0,-0.0602 0.5495,-0.85531 0.69089,-0.99963 0.0624,-0.0637 0.28839,-0.30397 0.50221,-0.53395 0.73538,-0.79095 1.94684,-1.63796 2.75386,-1.92539 0.18079,-0.0644 0.53826,-0.21261 0.79437,-0.32937 1.53493,-0.69975 3.75438,-0.9119 6.05367,-0.57865 1.2442,0.18033 1.42022,0.18786 1.35707,0.0581 -0.0245,-0.0504 -0.0682,-0.15839 -0.0969,-0.23988 -0.0287,-0.0815 -0.0912,-0.14817 -0.13885,-0.14817 -0.0476,0 -0.27236,-0.1143 -0.4994,-0.254 -0.22704,-0.1397 -0.4613,-0.254 -0.52056,-0.254 -0.0593,0 -0.23967,-0.1106 -0.4009,-0.24578 l -0.29313,-0.24578 0.20895,-0.18232 c 0.17444,-0.15221 0.18842,-0.19538 0.0847,-0.26141 -0.21341,-0.13581 -0.77009,-0.30899 -1.62712,-0.50619 -0.45402,-0.10447 -0.8255,-0.21457 -0.8255,-0.24467 0,-0.0301 0.12093,-0.10037 0.26874,-0.15617 0.25842,-0.0975 0.2631,-0.10767 0.12179,-0.26382 -0.18795,-0.20768 -0.66178,-0.324 -1.6182,-0.39726 -0.95905,-0.0735 -1.08368,-0.13137 -0.73098,-0.33972 0.14593,-0.0862 0.26532,-0.17965 0.26532,-0.20767 0,-0.11196 -0.93395,-0.33593 -1.40444,-0.33681 -0.27531,-5.1e-4 -0.64492,-0.0248 -0.82137,-0.054 l -0.3208,-0.053 0.2573,-0.15648 c 0.30457,-0.18522 0.33155,-0.36905 0.0668,-0.4552 -0.10477,-0.0341 -0.20955,-0.0688 -0.23283,-0.0771 -0.19813,-0.0708 -1.28745,-0.2376 -1.905,-0.29179 -0.70742,-0.0621 -0.74381,-0.0741 -0.508,-0.16828 0.27426,-0.10951 0.53174,-0.21981 0.93133,-0.39897 0.28153,-0.12622 1.03562,-0.30502 1.96372,-0.4656 0.67238,-0.11634 2.3748,-0.0661 2.94695,0.0869 1.27159,0.34011 2.12669,0.62709 2.74026,0.91967 0.69209,0.33002 1.73144,0.99495 2.10641,1.34758 0.16093,0.15134 0.31941,0.27516 0.35219,0.27516 0.0328,0 0.18884,0.13335 0.34681,0.29634 0.15797,0.16298 0.33689,0.29633 0.397614,0.29633 0.0607,0 0.11038,0.0381 0.11038,0.0847 0,0.0466 0.0571,0.0847 0.127,0.0847 0.0887,0 0.127,-0.0894 0.127,-0.29633 0,-0.16298 -0.0381,-0.29633 -0.0847,-0.29633 -0.0466,0 -0.0853,-0.0667 -0.0861,-0.14817 -8e-4,-0.0815 -0.11445,-0.33867 -0.252564,-0.5715 -0.29992,-0.50563 -0.32818,-0.72322 -0.0857,-0.6598 0.215574,0.0564 0.312344,-0.17457 0.178154,-0.4251 -0.262184,-0.48944 -0.925194,-1.43192 -1.043504,-1.48332 -0.0357,-0.0155 -0.0649,-0.0865 -0.0649,-0.15778 0,-0.0958 0.0662,-0.11984 0.254,-0.0923 0.22013,0.0323 0.254,0.011 0.254,-0.15973 0,-0.10835 -0.0762,-0.28273 -0.16933,-0.3875 -0.92955,-1.04574 -1.18533,-1.36804 -1.18533,-1.49354 0,-0.0918 0.0258,-0.10199 0.0918,-0.036 0.11233,0.11234 0.38899,0.0504 0.44671,-0.10003 0.0456,-0.11884 -0.39581,-0.77623 -0.64362,-0.95854 -0.0834,-0.0614 -0.12962,-0.14741 -0.10259,-0.19115 0.0486,-0.0787 -0.21325,-0.40107 -0.28106,-0.34597 -0.0194,0.0157 -0.10928,-0.051 -0.19984,-0.14817 -0.17475,-0.18756 -0.14218,-0.2077 0.28953,-0.17901 0.22178,0.0147 0.23467,-0.003 0.21486,-0.29718 -0.0141,-0.20902 -0.0804,-0.35171 -0.19969,-0.4299 -0.0982,-0.0644 -0.26368,-0.27903 -0.36765,-0.47702 -0.10396,-0.19798 -0.35495,-0.56952 -0.55775,-0.82564 -0.20281,-0.25611 -0.33239,-0.47893 -0.28797,-0.49514 0.18665,-0.0681 1.65592,0.65132 2.00547,0.98198 0.0615,0.0582 0.14992,0.10583 0.19642,0.10583 0.32126,0 2.443364,1.98346 2.443364,2.28374 0,0.0478 0.0343,0.0869 0.0763,0.0869 0.0698,0 0.14913,0.11035 0.63612,0.88512 0.21594,0.34354 0.60297,1.1371 0.68323,1.40088 0.0354,0.11641 0.0934,0.24976 0.12893,0.29633 0.0355,0.0466 0.0929,0.21802 0.12767,0.381 0.0347,0.16298 0.13425,0.38703 0.22115,0.49788 l 0.15801,0.20154 0.12729,-0.30466 c 0.07,-0.16756 0.12729,-0.38426 0.12729,-0.48155 0,-0.32344 0.41947,-1.90858 0.64918,-2.45321 0.86397,-2.04842 1.74951,-3.19967 3.67254,-4.77449 0.23298,-0.1908 1.46009,-0.81726 1.50766,-0.76969 0.0183,0.0183 -0.0762,0.21112 -0.20992,0.42857 -0.56168,0.91343 -0.78237,1.42906 -0.78794,1.84092 l -0.006,0.40831 0.23081,-0.18155 c 0.16114,-0.12675 0.24133,-0.15 0.26565,-0.077 0.0192,0.0575 -0.0196,0.14595 -0.0861,0.19658 -0.0665,0.0506 -0.21462,0.31047 -0.32915,0.57743 -0.11453,0.26697 -0.24951,0.48604 -0.29996,0.48684 -0.0504,7.9e-4 -0.0976,0.0491 -0.10478,0.10728 -0.068,0.55108 -0.0791,0.53048 0.2739,0.50892 l 0.33139,-0.0203 -0.17309,0.18958 c -0.30012,0.32872 -1.04003,1.57726 -1.04003,1.75499 0,0.10865 0.0562,0.17026 0.15522,0.17026 0.28705,0 0.27864,0.10854 -0.0689,0.889 -0.43679,0.98095 -0.48416,1.26482 -0.21334,1.27863 0.29841,0.0152 0.3081,0.0297 0.1783,0.26653 -0.30772,0.56145 -0.74572,2.2225 -0.58606,2.2225 0.0867,0 0.45807,-0.43359 0.83393,-0.97366 0.77275,-1.11037 3.04872,-3.14251 3.70133,-3.3048 0.12806,-0.0318 0.23284,-0.0871 0.23284,-0.1229 0,-0.0746 1.52372,-0.72074 1.905,-0.80778 0.1397,-0.0319 0.48544,-0.12688 0.76832,-0.21108 1.04885,-0.31221 3.29565,-0.30132 4.12817,0.02 l 0.23984,0.0926 -0.24786,0.10422 c -0.13632,0.0573 -0.37759,0.13024 -0.53616,0.16205 -0.43695,0.0876 -1.93931,0.73804 -1.93931,0.83956 0,0.049 0.1013,0.16992 0.22512,0.26864 l 0.22512,0.17951 -0.75429,0.22914 c -1.42088,0.43165 -1.70931,0.63447 -1.17632,0.82721 0.36088,0.1305 0.26673,0.28795 -0.22151,0.37044 -0.52673,0.089 -1.80747,0.67341 -1.84032,0.83977 -0.0177,0.0897 0.0385,0.16198 0.14816,0.19066 0.2771,0.0725 0.21205,0.17366 -0.27431,0.42676 -1.06996,0.5568 -1.66288,0.91918 -1.66422,1.01715 -7.9e-4,0.0578 0.0748,0.15271 0.1679,0.21087 0.25225,0.15753 0.2116,0.24765 -0.25518,0.56579 -0.68317,0.46563 -1.26882,1.06757 -1.26882,1.30412 0,0.0757 0.32617,0.12114 0.39503,0.055 0.25106,-0.24125 3.32974,-1.26721 3.80259,-1.26721 0.14072,0 0.2952,-0.0394 0.34329,-0.0875 0.13342,-0.13341 2.52771,-0.20419 3.07909,-0.091 0.25612,0.0526 0.70257,0.13295 0.99212,0.17862 0.66377,0.10471 2.35492,0.74 2.59995,0.97668 0.05,0.0483 0.24333,0.18005 0.4296,0.29275 0.46507,0.28141 1.16943,0.83821 1.26012,0.99615 0.0846,0.1473 -0.1233,0.13013 -1.13312,-0.0936 -0.5299,-0.1174 -1.14071,-0.17402 -1.62984,-0.15106 -0.174,0.008 -0.23283,0.0544 -0.23283,0.18291 0,0.0946 0.0571,0.19392 0.127,0.22073 0.0699,0.0268 0.127,0.10588 0.127,0.17573 0,0.0699 -0.0484,0.10841 -0.10767,0.0857 -0.0592,-0.0227 -0.41164,-0.105 -0.78316,-0.18285 -0.37153,-0.0778 -0.74166,-0.17762 -0.82252,-0.22174 -0.20631,-0.11256 -0.50338,-0.0953 -0.68126,0.0397 -0.14235,0.10798 -0.13766,0.1303 0.0824,0.39178 l 0.23331,0.27728 -0.2517,-0.0616 c -0.50926,-0.12455 -2.28717,-0.3609 -2.4313,-0.3232 -0.16164,0.0423 -0.20005,0.23143 -0.0641,0.31547 0.0466,0.0288 0.0847,0.10723 0.0847,0.17433 0,0.10018 -0.20361,0.12201 -1.13801,0.12201 -1.17219,0 -1.29962,0.036 -1.24758,0.35281 0.014,0.0852 -0.054,0.16523 -0.17145,0.20191 -0.48552,0.15158 -0.25702,0.43326 0.41393,0.51025 0.22409,0.0257 0.54079,0.0806 0.70377,0.12197 0.86738,0.22016 1.07118,0.27883 1.20535,0.34701 0.0809,0.0411 0.19912,0.0747 0.2628,0.0747 0.12117,0 1.55116,0.71116 2.12415,1.05638 0.18295,0.11022 0.4367,0.29863 0.5639,0.41868 0.12719,0.12005 0.25901,0.21828 0.29292,0.21828 0.0769,0 1.38935,1.31962 1.56222,1.57073 0.43978,0.63887 0.6398,0.96922 0.89628,1.48026 0.15898,0.31677 0.28905,0.63671 0.28905,0.71096 0,0.0743 0.0354,0.20117 0.0786,0.28203 0.12124,0.22688 0.34478,1.00499 0.34478,1.20009 0,0.23076 -0.13852,0.22237 -0.26248,-0.0159 -0.11879,-0.22831 -1.89089,-1.99133 -2.21135,-2.20001 l -0.2255,-0.14684 -0.20163,0.44318 -0.20163,0.44317 -0.23415,-0.381 c -0.12878,-0.20955 -0.307,-0.48423 -0.39604,-0.6104 -0.089,-0.12617 -0.16188,-0.28376 -0.16188,-0.35019 0,-0.0995 -0.46348,-0.39407 -0.62007,-0.39407 -0.0243,0 -0.0897,0.13803 -0.14537,0.30673 l -0.10123,0.30674 -0.74994,-0.77241 c -0.61233,-0.63066 -0.79595,-0.7724 -1.00064,-0.7724 -0.21646,0 -0.25432,0.0348 -0.27722,0.25503 l -0.0265,0.25503 -0.39907,-0.28456 c -0.21949,-0.15651 -0.62907,-0.3938 -0.91017,-0.5273 -0.2811,-0.1335 -0.5111,-0.27261 -0.5111,-0.30913 0,-0.0365 -0.13201,-0.0664 -0.29335,-0.0664 -0.20732,0 -0.3201,0.05 -0.38456,0.17041 -0.0755,0.14118 -0.1212,0.15435 -0.26607,0.0768 -0.12185,-0.0652 -0.20175,-0.0667 -0.26354,-0.005 -0.0618,0.0618 0.13988,0.31854 0.66525,0.84687 1.18186,1.18852 1.98574,2.25476 1.83006,2.42732 -0.0331,0.0366 -0.0173,0.0422 0.035,0.0123 0.11232,-0.0641 0.67128,1.05009 0.79231,1.57931 0.0444,0.19406 0.16454,0.58144 0.26701,0.86084 0.15598,0.4253 0.19216,0.73541 0.22225,1.905 0.0282,1.09612 0.0101,1.44603 -0.084,1.62464 l -0.11996,0.22764 -0.15347,-0.43931 c -0.19533,-0.55916 -0.66332,-1.46526 -0.92633,-1.79352 -0.19638,-0.24509 -0.20869,-0.24853 -0.36944,-0.10305 -0.16095,0.14566 -0.16922,0.14292 -0.2571,-0.0851 -0.0499,-0.12959 -0.11468,-0.35681 -0.14386,-0.50493 -0.0292,-0.14812 -0.10777,-0.31471 -0.17463,-0.3702 -0.0669,-0.0555 -0.12156,-0.15491 -0.12156,-0.22095 0,-0.12408 -0.31628,-0.61652 -0.46566,-0.72503 -0.0482,-0.035 -0.14466,0.0746 -0.22375,0.254 l -0.13907,0.3155 -0.13609,-0.31478 c -0.0749,-0.17313 -0.13609,-0.33883 -0.13609,-0.36821 0,-0.0294 -0.061,-0.19253 -0.13564,-0.36255 -0.0746,-0.17002 -0.1651,-0.38533 -0.20112,-0.47846 -0.20903,-0.54046 -0.26366,-0.63319 -0.42336,-0.71866 -0.15455,-0.0827 -0.18911,-0.0626 -0.28537,0.16636 -0.10286,0.24463 -0.11728,0.25133 -0.23715,0.11005 -0.0702,-0.0827 -0.25603,-0.41712 -0.41297,-0.74309 -0.15693,-0.32596 -0.40544,-0.75263 -0.55224,-0.94814 -0.25782,-0.34337 -0.27347,-0.35089 -0.45954,-0.22056 -0.18775,0.13151 -0.20652,0.11955 -0.74115,-0.47207 -0.85008,-0.94069 -1.80324,-1.53423 -2.46381,-1.53423 -0.38104,0 -0.49532,0.53701 -0.7748,3.64067 -0.0398,0.44238 -0.11898,1.20438 -0.17587,1.69333 -0.11562,0.99372 -0.15889,6.83785 -0.0617,8.33967 0.0666,1.02937 0.35637,3.38265 0.48992,3.97856 0.047,0.20979 0.1221,0.61963 0.16686,0.91077 0.13977,0.90904 0.7418,3.22496 1.12907,4.34332 0.11211,0.32378 0.25345,0.76013 0.31408,0.96968 0.0606,0.20955 0.15442,0.4572 0.20843,0.55034 0.054,0.0931 0.18629,0.40826 0.29396,0.7003 0.10767,0.29203 0.22891,0.55145 0.26943,0.57649 0.0405,0.0251 0.0737,0.10788 0.0737,0.18407 0,0.0762 0.10238,0.2454 0.22751,0.376 0.16905,0.17646 0.30805,0.23747 0.54098,0.23747 0.61308,0 1.72818,0.26717 2.23718,0.53602 0.54728,0.28906 1.39702,1.04745 1.39696,1.24677 -4e-5,0.10535 -0.8824,0.12332 -6.39636,0.13027 -5.507627,0.007 -6.389887,-0.009 -6.349967,-0.11276 z"
       id="path1" /></g></svg>
