<?xml version="1.0" encoding="UTF-8" standalone="no"?>
<!-- Created with Inkscape (http://www.inkscape.org/) -->

<svg
   width="46.736mm"
   height="59.012665mm"
   viewBox="0 0 46.736 59.012665"
   version="1.1"
   id="svg1"
   xml:space="preserve"
   inkscape:version="1.3.2 (091e20e, 2023-11-25)"
   sodipodi:docname="p5.svg"
   xmlns:inkscape="http://www.inkscape.org/namespaces/inkscape"
   xmlns:sodipodi="http://sodipodi.sourceforge.net/DTD/sodipodi-0.dtd"
   xmlns="http://www.w3.org/2000/svg"
   xmlns:svg="http://www.w3.org/2000/svg"><sodipodi:namedview
     id="namedview1"
     pagecolor="#ffffff"
     bordercolor="#000000"
     borderopacity="0.25"
     inkscape:showpageshadow="2"
     inkscape:pageopacity="0.0"
     inkscape:pagecheckerboard="0"
     inkscape:deskcolor="#d1d1d1"
     inkscape:document-units="mm"
     inkscape:zoom="0.89931441"
     inkscape:cx="105.63603"
     inkscape:cy="32.246787"
     inkscape:window-width="1376"
     inkscape:window-height="691"
     inkscape:window-x="0"
     inkscape:window-y="38"
     inkscape:window-maximized="0"
     inkscape:current-layer="layer1" /><defs
     id="defs1" /><g
     inkscape:label="Layer 1"
     inkscape:groupmode="layer"
     id="layer1"
     transform="translate(-81.085388,-118.99367)"><path
       style="fill:#000000"
       d="m 94.120153,178.22078 -0.254,-0.0586 0.29633,-0.1337 c 0.16299,-0.0735 0.59483,-0.27366 0.95965,-0.4447 0.87068,-0.40821 2.850467,-1.08214 4.332017,-1.47463 l 1.18533,-0.31402 0.0768,-0.9698 c 0.051,-0.64406 0.0429,-1.59545 -0.0242,-2.83247 -0.12003,-2.21417 -0.1947,-2.80709 -0.77296,-6.13834 -0.19818,-1.14165 -0.97208,-4.06199 -1.5145,-5.715 -0.9076,-2.76587 -2.786327,-6.8628 -4.057277,-8.84766 -0.16399,-0.25612 -0.34051,-0.54187 -0.39226,-0.635 -0.21536,-0.38757 -0.67876,-0.97367 -0.76984,-0.97367 -0.18063,0 -1.36692,1.47885 -1.68095,2.0955 -0.16811,0.33011 -0.27601,0.34702 -0.40519,0.0635 -0.053,-0.11642 -0.12532,-0.21167 -0.16061,-0.21167 -0.0779,0 -0.36043,0.87675 -0.49796,1.54517 -0.10878,0.5287 -0.20734,0.60458 -0.35743,0.27517 -0.053,-0.11642 -0.12449,-0.21167 -0.15877,-0.21167 -0.0558,0 -0.14837,0.57175 -0.2944,1.81824 -0.0271,0.23169 -0.0618,0.43371 -0.0771,0.44896 -0.0152,0.0152 -0.1126,-0.10965 -0.21636,-0.27753 -0.10376,-0.16789 -0.20576,-0.28813 -0.22668,-0.26721 -0.10968,0.10967 -0.287,1.04412 -0.33586,1.76985 -0.0654,0.97195 -0.11906,0.97343 -0.58575,0.0161 -0.34694,-0.71167 -0.62726,-1.9377 -0.62796,-2.74644 -10e-4,-1.60422 0.65787,-3.25738 1.76439,-4.42446 0.25419,-0.2681 0.43929,-0.51033 0.41133,-0.53829 -0.028,-0.028 -0.39598,-0.0167 -0.81782,0.025 -0.70851,0.0701 -0.76698,0.0643 -0.76698,-0.0755 0,-0.18838 -0.36917,-0.20543 -0.72783,-0.0336 -0.33455,0.16026 -0.80673,0.36164 -0.98767,0.42123 -0.13848,0.0456 -0.14002,0.0314 -0.0215,-0.1978 0.0702,-0.13581 0.0958,-0.2666 0.0569,-0.29066 -0.0922,-0.057 -0.59882,0.21481 -1.26616,0.67913 -0.67767,0.4715 -0.84776,0.47701 -0.60292,0.0195 0.21012,-0.39261 -0.1477,-0.24637 -1.04789,0.42828 -0.31646,0.23716 -0.59701,0.4312 -0.62345,0.4312 -0.0264,0 -0.0312,-0.1148 -0.0106,-0.2551 0.0331,-0.22572 0.0172,-0.24906 -0.13855,-0.2026 -0.24391,0.0728 -0.95777,0.53131 -1.26742,0.81412 -0.22234,0.20308 -0.26742,0.21676 -0.33229,0.10085 -0.0863,-0.15412 0.0774,-0.63278 0.46907,-1.37167 0.68018,-1.2833 1.62837,-2.1924 2.9806,-2.85774 1.1548,-0.5682 1.68715,-0.71022 2.90317,-0.77453 0.5224,-0.0276 0.93357,-0.0765 0.91374,-0.10859 -0.0405,-0.0655 -1.24398,-0.46576 -1.8063,-0.60075 -0.29688,-0.0713 -0.34779,-0.10993 -0.26931,-0.2045 0.0532,-0.0641 0.20844,-0.14113 0.34492,-0.17111 0.13648,-0.03 0.24815,-0.0844 0.24815,-0.12082 0,-0.0858 -1.07554,-0.25197 -1.75683,-0.27151 -0.29104,-0.008 -0.52917,-0.0461 -0.52917,-0.084 0,-0.0378 0.0999,-0.13426 0.22193,-0.21423 0.20373,-0.13349 0.20894,-0.15052 0.0635,-0.20767 -0.0871,-0.0342 -0.57025,-0.0649 -1.07359,-0.0682 -0.89988,-0.006 -1.0802,-0.0805 -0.62134,-0.25716 0.17346,-0.0668 0.17014,-0.0747 -0.0722,-0.17192 -0.17896,-0.0718 -0.55388,-0.085 -1.26903,-0.0448 l -1.01503,0.0571 0.21069,-0.18485 c 0.11589,-0.10167 0.40946,-0.31276 0.65238,-0.4691 1.2475,-0.80282 2.21593,-1.08443 3.74932,-1.09026 1.09771,-0.004 1.62923,0.0923 2.62467,0.47653 0.86524,0.33395 1.05699,0.43034 1.5875,0.79803 0.29104,0.20171 0.52916,0.3379 0.52916,0.30263 0,-0.0353 -0.22817,-0.42451 -0.50705,-0.865 -0.61783,-0.97585 -0.66503,-1.27733 -0.15746,-1.00568 0.27932,0.14949 0.26289,0.0437 -0.0679,-0.43722 -0.38767,-0.56358 -0.37845,-0.5515 -0.75159,-0.98422 -0.27955,-0.32419 -0.28946,-0.35208 -0.11008,-0.31 0.10841,0.0254 0.28822,0.0674 0.39958,0.0932 l 0.20246,0.047 -0.16013,-0.27176 c -0.0881,-0.14947 -0.42338,-0.59907 -0.74512,-0.99911 -0.55641,-0.6918 -0.57295,-0.72492 -0.33867,-0.67766 0.13548,0.0273 0.31117,0.0748 0.39043,0.10545 0.12772,0.0494 0.12424,0.014 -0.0306,-0.31157 -0.0961,-0.20204 -0.32284,-0.56573 -0.50394,-0.8082 -0.18111,-0.24248 -0.32928,-0.46497 -0.32928,-0.49443 0,-0.0295 -0.0857,-0.12508 -0.1905,-0.21248 -0.18963,-0.1582 -0.18968,-0.15894 -0.0117,-0.16174 0.29185,-0.005 1.32661,0.45961 1.99357,0.89434 0.7827,0.51017 1.67202,1.39765 2.30168,2.29693 0.76871,1.09786 1.15434,2.07007 1.49487,3.76876 0.0945,0.47146 0.18525,0.87059 0.20162,0.88697 0.0164,0.0164 0.19296,-0.2449 0.39241,-0.58061 0.37179,-0.62583 1.2205,-1.65449 1.78822,-2.16739 0.88904,-0.80319 1.910687,-1.37708 3.375107,-1.89587 0.7931,-0.28097 0.82443,-0.28494 2.24366,-0.2841 1.57046,9.3e-4 1.8796,0.06 2.98879,0.57157 l 0.56721,0.26158 -0.635,0.10924 c -0.69952,0.12034 -1.75747,0.43672 -1.82484,0.54572 -0.0236,0.0382 0.10901,0.11038 0.29471,0.16039 0.18571,0.05 0.35601,0.12062 0.37844,0.15693 0.0224,0.0363 -0.21407,0.10974 -0.52559,0.16319 -0.77463,0.13291 -1.79991,0.46341 -1.58238,0.51009 0.21169,0.0454 0.39141,0.18677 0.34106,0.26823 -0.0209,0.0339 -0.29675,0.13098 -0.6129,0.21576 -0.31616,0.0848 -0.74628,0.22728 -0.95583,0.31666 l -0.381,0.1625 0.23283,0.12285 c 0.12806,0.0676 0.23284,0.13735 0.23284,0.15508 0,0.0177 -0.27454,0.13713 -0.61009,0.26535 -0.33555,0.12822 -0.69428,0.27681 -0.79719,0.3302 -0.18408,0.0955 -0.18277,0.0988 0.0809,0.20333 0.2167,0.0859 0.24371,0.12188 0.14102,0.18789 -0.0698,0.0449 -0.39087,0.24235 -0.71338,0.43878 -0.632167,0.38503 -0.830467,0.61931 -0.41477,0.49004 1.4276,-0.44395 3.2463,-0.52255 4.49669,-0.19433 1.36934,0.35945 2.28824,0.82833 3.15318,1.60895 0.49866,0.45005 1.06106,1.10026 1.00241,1.15892 -0.0174,0.0174 -0.29039,-0.0589 -0.60666,-0.16947 -0.31627,-0.11059 -0.81145,-0.22689 -1.10042,-0.25843 l -0.52538,-0.0573 0.1905,0.20719 c 0.10477,0.11396 0.1905,0.23331 0.1905,0.26524 0,0.10694 -0.32116,0.0595 -0.70171,-0.1036 -0.46277,-0.19836 -1.42388,-0.45033 -1.48492,-0.38928 -0.0246,0.0246 0.0466,0.12974 0.15811,0.23367 0.17759,0.16545 0.18448,0.1925 0.0554,0.21736 -0.0811,0.0156 -0.48467,-0.0508 -0.8968,-0.14752 -0.41213,-0.0968 -0.87435,-0.17592 -1.02714,-0.17592 -0.27273,0 -0.275,0.003 -0.1241,0.16985 0.0845,0.0934 0.12981,0.19376 0.10059,0.22298 -0.0292,0.0292 -0.40682,0.0496 -0.8391,0.0454 -0.43227,-0.004 -0.86216,0.0245 -0.95529,0.064 -0.16145,0.0684 -0.15947,0.0757 0.0423,0.15658 0.11642,0.0466 0.56729,0.22756 1.00194,0.40205 1.79517,0.72069 2.86212,1.70162 3.89405,3.58016 0.20631,0.37557 0.58313,1.5001 0.63526,1.89582 l 0.0525,0.39852 -0.79291,-0.80068 c -0.4361,-0.44038 -0.83157,-0.80068 -0.87882,-0.80068 -0.0512,0 -0.069,0.14537 -0.044,0.35983 l 0.0419,0.35983 -0.23856,-0.29633 c -0.38679,-0.48047 -1.0656,-1.18533 -1.14152,-1.18533 -0.0387,0 -0.0474,0.1143 -0.0195,0.254 0.0279,0.1397 0.0184,0.254 -0.0213,0.254 -0.0396,0 -0.35186,-0.27623 -0.6938,-0.61384 l -0.62171,-0.61383 0.0594,0.32676 0.0594,0.32677 -0.22282,-0.146 c -0.12256,-0.0803 -0.22283,-0.17534 -0.22283,-0.21119 0,-0.0762 -1.02804,-0.93134 -1.11966,-0.93134 -0.0341,0 -0.0186,0.0954 0.0346,0.21202 0.0531,0.11662 0.0759,0.23271 0.0507,0.25798 -0.0253,0.0253 -0.28864,-0.087 -0.58525,-0.24945 -0.29662,-0.16247 -0.806007,-0.38784 -1.131977,-0.50083 -0.58282,-0.20202 -1.9659,-0.44904 -2.04899,-0.36595 -0.0387,0.0386 0.29419,0.71574 0.40092,0.81556 0.12291,0.11496 1.27902,1.97602 2.04035,3.28447 0.36547,0.62811 1.203727,2.30172 1.789867,3.57353 0.11803,0.25612 0.35522,0.77047 0.52707,1.143 2.25819,4.89517 4.43254,11.9505 5.0321,16.32816 0.0501,0.36565 0.1095,0.69467 0.13205,0.73116 0.0398,0.0644 0.71298,0.0432 1.64026,-0.0518 l 0.4543,-0.0465 0.66577,-1.38342 c 1.13495,-2.35835 2.09915,-5.64167 2.99576,-10.20128 0.98727,-5.02066 1.22837,-7.48306 1.22694,-12.53067 -0.001,-4.95809 -0.2797,-7.75276 -1.15048,-11.55334 -0.1605,-0.70051 -0.33031,-1.48321 -0.37735,-1.73933 -0.0471,-0.25611 -0.12166,-0.56091 -0.16581,-0.67733 -0.0442,-0.11642 -0.0922,-0.28787 -0.10668,-0.381 -0.0145,-0.0931 -0.11491,-0.43162 -0.22309,-0.7522 l -0.19669,-0.58287 -0.83433,0.0575 c -1.76189,0.12134 -3.71907,0.62845 -5.34704,1.38541 -0.45453,0.21134 -0.84729,0.36339 -0.8728,0.33788 -0.0375,-0.0375 0.0995,-0.40605 0.2835,-0.76281 0.0179,-0.0347 -0.0658,-0.055 -0.18603,-0.045 -0.12023,0.01 -0.2186,0.0425 -0.2186,0.0723 0,0.0298 -0.20002,0.19263 -0.4445,0.36182 -0.24447,0.16918 -0.84455,0.61259 -1.3335,0.98535 -1.1845,0.90301 -1.38171,0.89731 -0.91552,-0.0265 0.0899,-0.1781 0.15167,-0.35774 0.1373,-0.39919 -0.0266,-0.0767 -1.62335,1.12928 -2.302557,1.73902 -0.49754,0.44665 -0.7512,0.63141 -0.81377,0.59273 -0.0409,-0.0253 -5.5e-4,-0.2607 0.0897,-0.52312 0.0903,-0.26242 0.16415,-0.49021 0.16415,-0.5062 0,-0.15936 -0.84542,0.35789 -1.73567,1.06193 -0.64814,0.51257 -0.98169,0.83578 -1.32463,1.28356 -0.12318,0.16084 -0.25486,0.26235 -0.29263,0.22558 -0.0863,-0.0841 0.174,-1.4093 0.45257,-2.30382 0.39935,-1.2824 1.16959,-2.51276 2.34879,-3.75189 1.2406,-1.30363 2.740217,-2.22325 4.530897,-2.7785 1.42655,-0.44234 1.38917,-0.41673 0.76201,-0.52214 -0.30269,-0.0509 -0.90276,-0.11856 -1.33351,-0.1504 -0.89578,-0.0662 -1.00107,-0.1832 -0.48268,-0.53626 0.16463,-0.11212 0.26751,-0.23568 0.22863,-0.27456 -0.0933,-0.0933 -2.02007,0.0624 -2.772747,0.22408 -0.32595,0.07 -0.65932,0.12734 -0.74083,0.12734 -0.25987,0 -0.15998,-0.22535 0.23018,-0.51928 0.20811,-0.15678 0.37956,-0.31363 0.381,-0.34855 0.008,-0.18962 -1.78509,0.13371 -2.97076,0.53574 -1.06229,0.36019 -1.1034,0.34095 -0.62107,-0.29073 l 0.30021,-0.39318 h -0.38636 c -0.52807,0 -1.82949,0.29116 -2.66605,0.59647 l -0.69155,0.25238 0.1536,-0.26217 c 0.32723,-0.55854 1.22601,-1.5849 1.84831,-2.11068 1.97127,-1.66551 4.36638,-2.53025 7.025957,-2.53667 1.88168,-0.005 4.06491,0.60284 5.42669,1.50974 0.34484,0.22965 0.62698,0.38844 0.62698,0.35288 0,-0.13463 -0.53586,-0.74507 -1.16615,-1.32844 -0.3598,-0.33302 -0.62933,-0.63092 -0.59896,-0.662 0.0304,-0.0311 0.23992,-0.0831 0.46567,-0.11561 l 0.41044,-0.0591 -0.635,-0.39613 c -0.34925,-0.21787 -0.91931,-0.54107 -1.2668,-0.71823 -0.34749,-0.17716 -0.64521,-0.36755 -0.6616,-0.42308 -0.0177,-0.0599 0.10144,-0.12316 0.29313,-0.15556 0.5838,-0.0987 0.63901,-0.12566 0.52879,-0.25847 -0.15434,-0.18597 -1.31216,-0.73514 -2.13203,-1.01125 -0.40745,-0.13722 -0.74083,-0.293 -0.74083,-0.34618 0,-0.10275 0.28567,-0.23596 0.746,-0.34788 0.15418,-0.0375 0.28275,-0.1057 0.2857,-0.15159 0.006,-0.0975 -0.95801,-0.58777 -1.61126,-0.81923 -0.2489,-0.0882 -0.81779,-0.2355 -1.26418,-0.32735 -0.446397,-0.0918 -0.826337,-0.18171 -0.844307,-0.19968 -0.0821,-0.082 1.495747,-0.75775 2.240287,-0.95941 0.75688,-0.205 0.96828,-0.22478 2.43743,-0.22803 1.44809,-0.003 1.68051,0.0167 2.32834,0.19964 1.43899,0.40628 2.55068,0.96521 3.64066,1.83044 0.57912,0.4597 1.50755,1.41108 1.756,1.7994 0.0807,0.1262 0.18646,0.27134 0.23492,0.32252 0.0923,0.0975 0.96056,1.81524 1.06566,2.10827 0.0334,0.0931 0.0868,0.24553 0.11859,0.33867 0.0555,0.16247 0.0635,0.16088 0.19818,-0.0391 0.48541,-0.72096 0.94279,-1.18256 1.96065,-1.9787 0.31271,-0.24459 1.1987,-0.72409 1.80033,-0.97434 0.96246,-0.40034 2.03854,-0.60332 3.20682,-0.60489 2.09263,-0.003 3.79016,0.54809 5.63142,1.8276 0.77725,0.54012 2.04368,1.68838 1.95735,1.77472 -0.0254,0.0253 -0.38377,-0.0192 -0.7965,-0.099 -1.16219,-0.2247 -3.69173,-0.19771 -4.08212,0.0436 -0.14758,0.0912 0.031,0.40067 0.26686,0.46234 0.10062,0.0263 0.13693,0.0808 0.0969,0.14551 -0.0384,0.0621 -0.0287,0.0817 0.0242,0.049 0.0485,-0.03 0.12996,-0.004 0.18107,0.0575 0.10419,0.12554 0.14645,0.11325 -0.62406,0.18152 -0.91635,0.0812 -1.76503,0.22724 -2.3243,0.39998 -0.53574,0.16547 -0.54534,0.17346 -0.37095,0.30877 0.0985,0.0764 0.30347,0.20724 0.45557,0.29075 0.1607,0.0882 0.24438,0.18246 0.19977,0.22494 -0.0422,0.0402 -0.36251,0.15621 -0.71176,0.25779 -0.65012,0.1891 -1.69333,0.71059 -1.69333,0.84648 0,0.0417 0.23353,0.0581 0.51896,0.0364 0.72049,-0.0546 2.16027,0.1026 3.14005,0.34289 1.16349,0.28534 2.30257,0.81231 3.37109,1.55956 1.64634,1.15134 2.7674,2.38547 3.62301,3.9884 0.62736,1.17533 1.31798,3.38667 1.05768,3.38667 -0.0424,0 -0.2277,-0.15594 -0.41178,-0.34653 -0.89436,-0.92602 -2.31249,-1.97955 -2.4626,-1.82944 -0.0306,0.0306 0.004,0.26606 0.0773,0.52317 0.11058,0.38873 0.11337,0.46747 0.0165,0.46747 -0.0641,0 -0.14759,-0.0556 -0.18562,-0.12358 -0.13744,-0.24558 -2.66512,-2.16242 -2.85153,-2.16242 -0.0227,0 0.0513,0.16192 0.16449,0.35983 0.23014,0.40252 0.2705,0.74083 0.0884,0.74083 -0.0657,0 -0.30379,-0.14527 -0.52917,-0.32284 -0.80224,-0.63205 -2.31493,-1.53982 -2.56593,-1.53982 -0.0481,0 0.0172,0.18744 0.1451,0.41653 0.12791,0.22909 0.20756,0.44153 0.177,0.47208 -0.0306,0.0306 -0.42036,-0.0811 -0.86623,-0.24807 -0.84131,-0.31511 -1.98677,-0.59603 -2.07412,-0.50868 -0.0276,0.0276 0.0171,0.0878 0.0993,0.13382 0.46398,0.25966 1.8321,1.56638 2.69144,2.57065 1.18314,1.38268 2.12568,3.5251 2.41644,5.49261 0.14923,1.00977 0.12281,2.50417 -0.0593,3.35321 -0.10516,0.49035 -0.16127,0.47653 -0.33619,-0.0828 -0.2322,-0.74251 -1.27563,-2.62404 -1.45546,-2.6245 -0.0349,-9e-5 -0.0648,0.25701 -0.0663,0.57133 l -0.003,0.5715 -0.16559,-0.19872 c -0.0911,-0.1093 -0.21152,-0.35695 -0.26766,-0.55034 -0.0561,-0.19338 -0.18992,-0.49372 -0.29727,-0.66742 -0.10735,-0.1737 -0.19518,-0.33608 -0.19518,-0.36085 0,-0.0423 -0.77208,-1.22833 -0.79961,-1.22833 -0.007,0 0.003,0.24765 0.0223,0.55033 0.0491,0.77194 -0.13585,0.74588 -0.45075,-0.0635 -0.31796,-0.81724 -0.99045,-2.11801 -1.11585,-2.15832 -0.0728,-0.0234 -0.0871,0.0952 -0.0523,0.4329 0.0582,0.5636 -0.006,0.79546 -0.1801,0.65095 -0.0654,-0.0543 -0.34119,-0.50525 -0.61283,-1.00213 -0.27165,-0.49689 -0.66535,-1.13239 -0.8749,-1.41223 l -0.381,-0.50879 -0.0423,0.47635 -0.0423,0.47635 -0.84667,-0.8087 c -1.21244,-1.15807 -2.26108,-1.97802 -2.37896,-1.86014 -0.0199,0.0199 0.0551,0.35633 0.16658,0.74769 0.8884,3.11871 1.34362,5.60642 1.74145,9.5169 0.26491,2.60393 0.34136,4.36908 0.3427,7.91241 0.003,7.34542 -0.608,14.24448 -1.80868,20.43005 l -0.11099,0.5718 0.34662,0.0879 c 2.28699,0.58007 4.46432,1.57546 5.56694,2.545 l 0.36768,0.32329 -11.59934,-0.007 c -6.37964,-0.004 -11.713637,-0.0337 -11.853337,-0.0659 z"
       id="path1" /></g></svg>
