<?xml version="1.0" encoding="UTF-8" standalone="no"?>
<!-- Created with Inkscape (http://www.inkscape.org/) -->

<svg
   width="27.685999mm"
   height="27.685999mm"
   viewBox="0 0 27.685999 27.685999"
   version="1.1"
   id="svg1"
   xml:space="preserve"
   inkscape:version="1.3.2 (091e20e, 2023-11-25)"
   sodipodi:docname="vapor.svg"
   xmlns:inkscape="http://www.inkscape.org/namespaces/inkscape"
   xmlns:sodipodi="http://sodipodi.sourceforge.net/DTD/sodipodi-0.dtd"
   xmlns:xlink="http://www.w3.org/1999/xlink"
   xmlns="http://www.w3.org/2000/svg"
   xmlns:svg="http://www.w3.org/2000/svg"><sodipodi:namedview
     id="namedview1"
     pagecolor="#ffffff"
     bordercolor="#000000"
     borderopacity="0.25"
     inkscape:showpageshadow="2"
     inkscape:pageopacity="0.0"
     inkscape:pagecheckerboard="0"
     inkscape:deskcolor="#d1d1d1"
     inkscape:document-units="mm"
     inkscape:zoom="2.1741703"
     inkscape:cx="99.808188"
     inkscape:cy="45.074665"
     inkscape:window-width="1368"
     inkscape:window-height="819"
     inkscape:window-x="0"
     inkscape:window-y="38"
     inkscape:window-maximized="0"
     inkscape:current-layer="layer1" /><defs
     id="defs1"><linearGradient
       id="linearGradient1"
       inkscape:collect="always"><stop
         style="stop-color:#da4394;stop-opacity:1;"
         offset="0.74216026"
         id="stop1" /><stop
         style="stop-color:#6d84b8;stop-opacity:0.99607843;"
         offset="0.92682934"
         id="stop4" /></linearGradient><radialGradient
       inkscape:collect="always"
       xlink:href="#linearGradient1"
       id="radialGradient2"
       cx="104.54435"
       cy="148.34756"
       fx="104.54435"
       fy="148.34756"
       r="14.177343"
       gradientTransform="matrix(1,0,0,0.9828326,0,2.5467424)"
       gradientUnits="userSpaceOnUse" /></defs><g
     inkscape:label="Layer 1"
     inkscape:groupmode="layer"
     id="layer1"
     transform="translate(-90.61039,-134.657)"><rect
       style="fill:url(#radialGradient2);stroke:none;stroke-width:1;fill-opacity:1"
       id="rect1"
       width="28.354687"
       height="27.86791"
       x="90.367004"
       y="134.4136" /><path
       style="fill:#000000;stroke-width:0.779406"
       d="m 98.551211,161.98739 c 0.01339,-0.0617 0.119016,-0.55958 0.234737,-1.10633 0.115713,-0.54675 0.236117,-1.06624 0.267569,-1.15443 0.03144,-0.0882 0.0937,-0.33351 0.13834,-0.54515 0.04467,-0.21165 0.109017,-0.43492 0.143059,-0.49617 0.03408,-0.0613 0.06255,-0.1767 0.06335,-0.25655 7.86e-4,-0.0798 0.07987,-0.39049 0.175818,-0.69032 0.09592,-0.29983 0.246398,-0.77603 0.334395,-1.05823 0.08801,-0.28219 0.210941,-0.64295 0.273181,-0.80169 0.0622,-0.15873 0.26146,-0.69265 0.44271,-1.18649 0.46765,-1.27422 0.79808,-2.09056 0.91357,-2.25705 0.3229,-0.4655 -0.10393,-0.55625 -0.62081,-0.13199 -0.18264,0.14992 -0.34226,0.29422 -0.3547,0.32068 -0.0508,0.10789 -0.16035,0.0387 -0.12738,-0.0804 0.0493,-0.17828 -0.15558,-0.40514 -0.31409,-0.34768 -0.0679,0.0246 -0.152022,0.10574 -0.186971,0.1803 -0.03496,0.0745 -0.230599,0.32315 -0.434798,0.55243 -0.204192,0.22929 -0.373105,0.44574 -0.375359,0.48101 -0.0024,0.0353 -0.09452,0.16406 -0.205038,0.28619 -0.187398,0.2071 -0.200935,0.21207 -0.200935,0.0739 0,-0.20862 -0.200911,-0.58449 -0.312422,-0.58449 -0.05132,0 -0.163957,0.10823 -0.250367,0.24051 -0.17804,0.27255 -0.591258,1.18941 -0.591892,1.31331 -2.32e-4,0.0449 -0.04956,0.16821 -0.109682,0.27403 -0.06007,0.10582 -0.132008,0.26456 -0.159803,0.35275 -0.04675,0.14831 -0.06367,0.13269 -0.226076,-0.20845 -0.09654,-0.20282 -0.215403,-0.36825 -0.264137,-0.36762 -0.140709,0.002 -0.507719,0.46221 -0.56307,0.7063 -0.02775,0.12238 -0.0733,0.25136 -0.101173,0.28664 -0.02791,0.0353 -0.102424,0.2373 -0.165626,0.44895 -0.06319,0.21165 -0.143788,0.47344 -0.17909,0.58177 -0.03529,0.10832 -0.06416,0.31586 -0.06416,0.46119 0,0.14533 -0.02566,0.27923 -0.0571,0.29757 -0.128159,0.0748 -0.476692,-0.54156 -0.812394,-1.43673 -0.692063,-1.84543 -0.347619,-3.86963 0.845739,-4.97018 0.618813,-0.5707 0.757108,-0.65641 1.619359,-1.00372 0.395455,-0.15928 0.950305,-0.30559 1.301428,-0.34319 0.452442,-0.0484 0.837356,-0.14847 0.837356,-0.21761 0,-0.1055 -0.401699,-0.31458 -0.851454,-0.44316 -0.262909,-0.0751 -0.772273,-0.15619 -1.131913,-0.18007 -0.654355,-0.0435 -0.899854,-0.10814 -0.764927,-0.20157 0.121543,-0.0842 0.310994,-0.40236 0.273592,-0.45952 -0.111623,-0.17061 -0.808834,-0.12826 -2.029643,0.12326 -0.367467,0.0757 -0.686056,0.12071 -0.707981,0.1 -0.02189,-0.0207 0.03745,-0.11672 0.131952,-0.21336 0.386842,-0.39559 0.241402,-0.57193 -0.41062,-0.49786 -0.521938,0.0593 -0.948243,0.19325 -1.692208,0.53176 -0.347073,0.15793 -0.645301,0.27367 -0.662727,0.25721 -0.07225,-0.0683 0.203085,-0.62783 0.54606,-1.10974 0.845948,-1.18859 1.998367,-1.91621 3.450665,-2.17868 0.475722,-0.086 0.71993,-0.0859 1.543383,3e-4 0.731534,0.0766 2.160132,0.73961 2.727949,1.26603 0.186333,0.17276 0.392653,0.14614 0.392653,-0.0507 0,-0.2541 -0.25008,-0.66271 -0.700808,-1.14503 -0.397428,-0.4253 -0.405504,-0.44077 -0.212628,-0.40685 0.110275,0.0194 0.266638,0.0551 0.347459,0.0794 0.110058,0.033 0.166636,0.009 0.225306,-0.0942 0.06993,-0.12343 0.03954,-0.17496 -0.28275,-0.47956 -0.198609,-0.1877 -0.618625,-0.51059 -0.933372,-0.71755 -0.559678,-0.36799 -0.685246,-0.50082 -0.480149,-0.50788 0.19387,-0.007 0.465585,-0.10476 0.495402,-0.17882 0.05501,-0.13663 -0.07626,-0.34876 -0.329993,-0.53315 -0.138167,-0.10042 -0.346488,-0.25606 -0.46293,-0.34585 -0.116443,-0.0898 -0.349207,-0.21552 -0.517255,-0.2794 -0.475754,-0.18084 -0.98126,-0.38378 -1.016497,-0.40808 -0.103828,-0.0716 0.5527,-0.24886 1.141729,-0.30826 0.532956,-0.0538 1.491353,-0.0239 1.911705,0.0596 0.678651,0.13475 1.514391,0.47742 1.969051,0.80733 0.1307,0.0948 0.2911,0.19124 0.35646,0.21422 0.0654,0.023 0.11882,0.086 0.11882,0.13999 0,0.054 0.0382,0.0984 0.0849,0.0987 0.0985,6.1e-4 0.61565,0.59778 0.9848,1.13729 0.14046,0.20527 0.32759,0.58881 0.41584,0.85231 0.25971,0.77544 0.28816,0.83182 0.41988,0.83182 0.0692,0 0.25216,-0.15553 0.41578,-0.35341 0.16072,-0.19437 0.3431,-0.36867 0.4053,-0.38732 0.0622,-0.0186 0.16137,-0.10349 0.22038,-0.18855 0.059,-0.0851 0.32908,-0.27744 0.60017,-0.42751 1.04878,-0.58055 2.31235,-0.84274 3.36532,-0.69829 0.85518,0.11732 1.21473,0.21571 1.87326,0.51259 0.64552,0.29102 1.73859,1.00747 1.73859,1.13956 0,0.0635 -0.0699,0.072 -0.28857,0.0349 -0.69065,-0.11694 -2.3889,0.0658 -2.64583,0.28478 -0.15085,0.12853 -0.0613,0.29933 0.23213,0.44265 0.26198,0.12797 0.17977,0.18386 -0.35314,0.24006 -0.38395,0.0404 -1.15818,0.22057 -1.53924,0.35802 -0.36321,0.13102 -0.35541,0.39283 0.0144,0.48048 0.1944,0.0461 0.21897,0.1524 0.0481,0.20833 -0.45364,0.14849 -1.006,0.45277 -1.28211,0.70624 -0.31568,0.2898 -0.32068,0.30021 -0.1739,0.36208 0.10879,0.0458 0.28873,0.0319 0.6423,-0.0498 1.27344,-0.29425 2.76831,-0.16881 3.7844,0.31754 0.2,0.0957 0.40618,0.21424 0.45818,0.26336 0.052,0.0491 0.13754,0.0893 0.1901,0.0893 0.16438,0 1.14175,0.93559 1.08095,1.03475 -0.0295,0.0482 -0.029,0.0665 0.002,0.0407 0.13695,-0.11705 0.66187,0.7812 0.90943,1.55626 0.25103,0.78588 0.29769,1.10947 0.25488,1.76719 -0.0755,1.15982 -0.16057,1.43599 -0.33028,1.07225 -0.19669,-0.42155 -0.63836,-0.98007 -1.19158,-1.50681 -0.32572,-0.31014 -0.62081,-0.56416 -0.65574,-0.56452 -0.035,-3.5e-4 -0.13164,-0.0611 -0.21489,-0.13496 -0.10668,-0.0947 -0.19562,-0.12106 -0.30119,-0.0894 -0.16048,0.0481 -0.15935,-0.004 -0.0188,0.86159 0.0357,0.21954 0.0318,0.21739 -0.57969,-0.32637 -0.7249,-0.64458 -1.47635,-1.13868 -1.80939,-1.18973 -0.22995,-0.0352 -0.23772,-0.0298 -0.23772,0.16755 0,0.11219 0.0481,0.29181 0.10686,0.39916 0.0588,0.10735 0.0909,0.21025 0.0714,0.22866 -0.0195,0.0184 -0.23492,-0.0719 -0.47873,-0.20067 -0.88097,-0.46537 -2.15331,-0.7487 -2.48157,-0.55261 -0.0842,0.0503 -0.0734,0.0869 0.0679,0.23116 0.0924,0.0943 0.29018,0.24395 0.43956,0.33262 0.24042,0.14272 0.98452,0.80087 0.98452,0.87081 0,0.0148 0.10641,0.13651 0.23645,0.27063 0.44951,0.46354 0.90487,1.49782 1.06651,2.4224 0.0932,0.5333 -0.0132,1.41557 -0.22849,1.89305 -0.46507,1.03169 -0.67626,1.34481 -1.35305,2.00616 -0.40089,0.39174 -1.27971,1.08275 -1.37703,1.08275 -0.0626,0 -0.0504,-0.28581 0.0151,-0.35595 0.0881,-0.0943 0.21764,-0.87895 0.2576,-1.56092 0.0447,-0.76358 -0.031,-1.28182 -0.20152,-1.37913 -0.1062,-0.0606 -0.16952,-0.0237 -0.42857,0.24958 l -0.30397,0.32067 0.0552,-0.70548 c 0.0303,-0.38802 0.0513,-0.97966 0.0467,-1.31477 -0.0133,-0.9613 -0.1964,-1.19992 -0.54206,-0.70654 -0.19023,0.27152 -0.2807,0.28765 -0.28212,0.0503 -4.8e-4,-0.08 -0.0829,-0.52066 -0.18316,-0.97923 -0.12993,-0.59424 -0.2239,-0.87581 -0.32708,-0.98015 l -0.14478,-0.1464 -0.0901,0.16243 c -0.1429,0.25763 -0.25302,0.19273 -0.41687,-0.24569 -0.0929,-0.24856 -0.24117,-0.48927 -0.37923,-0.61568 l -0.22671,-0.20754 -0.14256,0.13466 c -0.0784,0.0741 -0.14255,0.18562 -0.14255,0.24791 0,0.0623 -0.1406,0.48799 -0.31244,0.946 -0.36875,0.98286 -0.76683,2.20341 -0.83636,2.56438 -0.0446,0.23155 -0.15334,0.61924 -0.45409,1.61886 -0.0557,0.18489 -0.14345,0.53122 -0.19517,0.76962 -0.355932,1.64079 -0.579739,2.75999 -0.654176,3.27144 l -0.08635,0.59325 h -0.489713 c -0.430387,0 -0.486748,-0.0136 -0.465352,-0.11224 z"
       id="path1"
       transform="translate(-1.0208333e-6)" /></g></svg>
